<svg width="575" height="519" viewBox="0 0 575 519" fill="none" xmlns="http://www.w3.org/2000/svg">
<rect width="575" height="519" fill="black" fill-opacity="0.01"/>
<path fill-rule="evenodd" clip-rule="evenodd" d="M221 195.301C173.422 220.451 141 270.439 141 328C141 410.843 208.157 478 291 478C373.843 478 441 410.843 441 328C441 248.441 379.061 183.348 300.773 178.313L296.985 238.196C343.9 241.276 381 280.305 381 328C381 377.706 340.706 418 291 418C241.294 418 201 377.706 201 328C201 301.923 212.09 278.437 229.811 262H221V195.301Z" fill="#FFFDEF"/>
<path fill-rule="evenodd" clip-rule="evenodd" d="M373.255 468.913L375.936 480.401C426.748 454.601 463.587 404.054 469.188 343.117C474.517 285.151 450.341 231.275 409.016 196.351L404.057 207.676C440.06 240.584 460.792 289.524 455.964 342.044C450.861 397.55 418.417 443.919 373.255 468.913Z" fill="#EF476F"/>
<path fill-rule="evenodd" clip-rule="evenodd" d="M251.152 145.624C198.434 157.142 151.113 191.332 124.695 243.16C83.4151 324.145 106.971 421.131 176.149 474.952L191.98 455.086C132.639 408.657 112.635 324.938 148.342 254.886C170.945 210.542 211.096 181.045 255.895 170.628L251.152 145.624Z" fill="#FFD166"/>
<path fill-rule="evenodd" clip-rule="evenodd" d="M294.448 141.347L293.41 166.449C307.781 166.551 322.26 168.597 336.463 172.712L343.085 148.782C327.036 144.082 310.687 141.648 294.448 141.347Z" fill="#118AB2"/>
<path fill-rule="evenodd" clip-rule="evenodd" d="M99.3024 136.302C71.7808 163.824 51.4283 195.8 38.2449 229.91L229.726 303.831C236.606 286.617 250.473 272.952 267.82 266.34L193.901 74.8639C159.42 88.0348 127.091 108.514 99.3024 136.302Z" fill="#06D6A0"/>
<path fill-rule="evenodd" clip-rule="evenodd" d="M133.971 188.155L110.221 168.172C175.044 96.1043 280.138 67.9247 375.707 105.385C376.615 105.741 377.52 106.102 378.422 106.468L368.849 132.88C311.146 109.831 243.828 112.507 185.841 145.986C165.872 157.516 148.513 171.83 133.971 188.155Z" fill="#EF476F"/>
<path fill-rule="evenodd" clip-rule="evenodd" d="M202.519 344.555C192.19 348.14 186.468 333.879 180.235 318.346C172.809 299.836 164.657 279.521 147.121 285.448C143.138 298.938 141 313.219 141 328C141 410.843 208.157 478 291 478C357.506 478 413.902 434.719 433.56 374.786C418.237 400.753 408.611 394.024 397.215 386.058C388.52 379.98 378.794 373.181 364.723 379.637C348.444 402.836 321.493 418 291 418C246.95 418 210.291 386.353 202.519 344.555Z" fill="#829ABC" fill-opacity="0.18"/>
<path fill-rule="evenodd" clip-rule="evenodd" d="M259.794 22.7136C256 23.096 252.228 23.5461 248.481 24.0626L287.271 303.349C287.863 303.25 288.461 303.172 289.066 303.115L271.359 21.765C267.515 22.0083 263.659 22.3241 259.794 22.7136Z" fill="#D9D9D9"/>
</svg>
