<svg version="1.1" xmlns="http://www.w3.org/2000/svg" xmlns:xlink="http://www.w3.org/1999/xlink" width="256.93848" height="366.02376" viewBox="0,0,256.93848,366.02376"><g transform="translate(-111.53076,-37.80308)"><g data-paper-data="{&quot;isPaintingLayer&quot;:true}" fill-rule="nonzero" stroke="none" stroke-width="0.5" stroke-linecap="butt" stroke-linejoin="miter" stroke-miterlimit="10" stroke-dasharray="" stroke-dashoffset="0" style="mix-blend-mode: normal"><path d="M262.01791,304.85404c-1.56162,-1.20999 -3.03263,-2.45044 -4.08713,-3.43268c-1.78455,-1.66227 -4.32772,-3.04603 -4.92502,-5.41057c-1.17558,-4.65379 -2.11152,-10.05121 -0.07917,-14.3997c1.21213,-2.59353 5.47112,-1.71915 8.10469,-2.84163c2.44935,-1.04396 4.69001,-3.72234 7.30628,-3.2281c3.02991,0.57238 7.83527,6.179 10.39296,8.98992c1.50028,3.89845 4.03705,7.25951 5.54284,11.03001c1.13984,2.85416 1.2133,6.03042 1.61687,9.07716c0.34168,2.57952 1.88919,5.46221 2.84029,7.89283c0.71661,1.83137 3.40106,2.05605 4.77988,3.45831c1.50471,1.5303 2.66103,3.36913 3.92848,5.10104c1.86669,2.55076 3.92449,4.9884 5.47111,7.745c2.02355,3.60664 3.39677,7.74781 5.22568,11.42988c3.57529,7.19796 6.60188,9.91054 4.4996,19.19765c-0.84383,3.72774 -4.58391,6.96456 -7.12487,9.54724c-2.72463,2.47725 -6.06321,4.54113 -9.64886,5.37984c-1.07866,0.25231 -2.22576,-0.10638 -3.32299,0.04607c-3.11033,0.43216 -6.08093,1.66718 -9.20099,2.02232c-1.07045,0.12184 -2.1745,-0.32717 -3.23016,-0.112c-0.78253,0.1595 -6.424,3.07167 -6.8061,3.256c-0.40039,0.19315 -0.78998,0.49181 -1.18484,0.75568c2.01568,0.97459 2.56714,1.79417 4.39394,3.63128c3.71733,3.73832 8.58672,8.10167 5.48383,15.0212c-1.55677,3.47163 -6.8605,3.36149 -10.49423,4.48921c-3.64941,1.13259 -8.56712,-1.03612 -12.36155,-1.10976c-1.92354,-0.64118 -4.01552,-0.58415 -6,-1c-2.88728,-0.60504 -5.36408,-2.45855 -8.07716,-3.61687c-1.26399,-0.53965 -2.73744,-0.45701 -4,-1c-1.20292,-0.51734 -2.1322,-1.53707 -3.29578,-2.13769c-1.7177,-0.88665 -3.74031,-1.0242 -5.51832,-1.7827c-4.35703,-1.85872 -9.50744,-4.17549 -13.1361,-7.27957c-2.73228,-2.33729 -4.55279,-5.58498 -6.50665,-8.60337c-0.73484,-1.13521 -4.92665,-3.76213 -5.11485,-3.95963c-3.39534,-3.56319 -6.65995,-9.73048 -7.37984,-14.64886c-0.55971,-3.82406 -0.10976,-8.42015 -0.10976,-12.36155c0,-2.33333 -0.31511,-4.68804 0,-7c0.04449,-0.32645 0.68632,-0.42008 0.64702,-0.74719c-0.02915,-0.24265 -0.55212,0.31329 -0.72043,0.1361c-1.90373,-2.00413 -3.4641,-4.34291 -5.437,-6.3785c-3.53134,-3.64354 -6.24552,-8.24357 -7.96161,-13.06136c-3.24564,-9.11187 -1.5594,-20.44364 2.11905,-29.20185c0.90529,-2.15547 2.06843,-4.21114 2.78917,-6.43513c0,0 2.68794,-8.06381 10.75174,-5.37587c3.97987,1.32662 5.34074,3.96275 5.69835,6.29262c2.90589,0.62361 5.19777,3.09904 8.00262,5.19778c1.12197,0.83951 2.47805,1.39149 3.45243,2.39855c3.98287,4.11649 5.57357,8.66547 8.2393,13.4299c0.63422,-0.1698 1.25783,-0.33342 1.85781,-0.50126c5.31929,-1.48799 10.55034,-2.23306 16.06155,-2.25379c1.69042,-0.00636 6.89683,-0.03535 7.9529,0.22738c1.44661,0.3599 2.55696,1.62603 4,2c0.99706,0.2584 2.06276,-0.28443 3.08566,-0.1637c0.50004,0.05902 0.9916,0.16427 1.47935,0.29035zM244.03892,369.85261c-0.21689,-0.29076 -0.34629,-0.48857 -0.00208,0.0121c0.00068,-0.00404 0.00138,-0.00807 0.00208,-0.0121zM255.40784,384.53124c-0.17931,-0.75715 -0.32922,-1.54151 -0.44605,-2.33503c-0.49611,0.36639 -0.99894,0.7238 -1.50686,1.07343c0.62086,0.52537 1.23073,1.06018 1.9529,1.2616zM243.93274,368.98267c0.07407,0.13832 0.14768,0.28217 0.22108,0.4323c0.05768,-0.1637 0.13035,-0.32234 0.21593,-0.47664c-0.14576,0.01439 -0.29144,0.02912 -0.43701,0.04434z" fill="#fffa66"/><path d="M254.07341,290.61109c0.63213,0.77878 0.89018,1.84033 1.60145,2.54757c1.93208,1.92115 4.31988,3.34549 6.2465,5.27212c4.76703,6.35604 9.67316,11.99875 12.55066,19.62017c1.14795,3.04048 2.42533,6.17205 2.51155,9.42087c0.05702,2.14848 -0.7787,4.23065 -1.02494,6.36574c-0.6968,6.04164 0.08605,12.0095 -3.2281,17.63114c-2.04556,3.46978 -6.37556,6.6147 -9.68516,8.71388c-0.37313,0.23667 -9.67684,5.82517 -10.0822,5.95269c-1.74099,0.54769 -3.63912,0.3025 -5.46317,0.36472c-1.53331,0.0523 -3.18791,0.57237 -4.60256,-0.02138c-0.19187,-0.08053 -0.38304,-0.16251 -0.57355,-0.24587l-0.02597,0.18182l-6.87629,-0.98233c-4.18527,-0.52989 -7.42163,-4.10312 -7.42163,-8.43224c0,-3.39322 1.9883,-6.32206 4.86339,-7.68498l3.8353,-1.91765l0.20426,0.40851l0.64802,-0.7779c3.01617,-0.68854 6.30544,-1.8651 8.37563,-4.41688c0.91832,-1.13195 1.31341,-5.1229 1.1845,-5.03769c-4.45713,-3.10615 -10.42598,-3.62925 -15.07981,-6.34288c-1.13689,-0.66292 -1.88583,-1.84344 -2.92019,-2.65712c-2.11427,-1.66319 -4.46806,-3.11323 -6.1845,-5.1845c-1.53373,-1.8508 -2.57045,-4.0676 -4,-6c-1.04643,-1.41452 -2.70606,-2.47268 -3.27957,-4.1361c-0.72699,-2.10861 -0.98855,-11.08126 0,-13.50562c1.85731,-4.55492 9.55162,-10.39001 13.27187,-12.90704c1.48718,-1.00619 3.39931,-1.48969 4.5707,-2.85056c0,0 1.24551,-1.24551 3.16955,-2.03559c1.54808,-2.09525 4.03579,-3.45401 6.84085,-3.45401c4.04516,0 7.43034,2.82572 8.28934,6.61094l0.95688,3.8275l-0.01865,0.00466c0.2194,0.64229 0.90392,1.12353 1.34584,1.66799z" fill="#ffb066"/><path d="M304.72888,264.44041c0.91065,1.21997 1.98649,2.32047 3.00936,3.45657c4.15828,0.7118 8.95376,0.68629 12.76859,-0.50419c3.73312,-1.16499 6.26199,-2.99911 9.93998,-4.60642c6.95832,-3.04086 10.54751,-4.22042 17.20886,-6.59373c1.31691,-1.11116 2.57421,-2.29709 3.95075,-3.33347c0.03872,-0.02914 0.09808,0.04841 0.14127,0.12134c-0.36405,-0.91277 0.80984,-2.48491 -0.04934,-2.97139c-2.62078,-1.4839 -3.53017,-3.88246 -5.34288,-6.07981c-1.62226,-1.96649 -3.63439,-3.57588 -5.437,-5.37849c-2.46927,-2.46927 -4.64231,-5.26725 -7.3785,-7.437c-1.88341,-1.49351 -4.16751,-2.44444 -6,-4c-3.98315,-3.38121 -7.74018,-7.0573 -11.17119,-11.00058c-1.22597,4.18576 -2.86913,8.22589 -4.83728,12.22848c-2.73073,5.4437 -6.25889,10.52907 -8.96695,15.93317c-1.66473,3.32208 -2.43219,7.57361 -4.40515,10.73423c-0.08718,0.13967 -0.17923,0.27564 -0.2754,0.40851c2.54548,2.7746 4.62576,6.04988 6.84487,9.02277zM319.20149,290.58751c0.48829,1.7617 1.47596,6.50279 -0.04209,5.48419c10.21572,7.71651 6.02558,17.5305 -3.49604,22.10439c-5.50253,2.64324 -9.87685,0.8868 -15.37293,1.75456c-1.0412,0.16439 -1.95507,0.86131 -3,1c-3.33157,0.44217 -7.01964,-0.47276 -10.32299,0.04607c-10.51741,1.65188 -21.33785,1.06369 -32.03856,1.06369c-4.01683,0 -8.39423,0.41679 -12.36155,-0.10976c-2.99894,-0.39802 -6.00337,-1.57191 -9,-2c-1.31993,-0.18856 -2.68207,0.20213 -4,0c-5.44215,-0.83464 -10.63897,-4.22677 -16,-5c-5.26703,-0.75967 -10.5492,-0.90541 -15.82013,-2.175c-1.7428,-0.41978 -4.01974,-1.51628 -5.85688,-1.77893c-2.45197,-0.35056 -5.06547,0.45363 -7.42461,-0.30103c-1.93021,-0.61744 -3.50119,-2.0419 -5.25178,-3.06285c-5.07879,-3.61317 -10.50248,-2.29082 -12.74368,-11.23486c-0.01372,-0.05476 1.36867,-3.18452 2.84789,-6.31259c-3.80022,-0.13356 -7.69345,-0.58057 -11.3507,-0.08867c-1.36211,0.18321 -2.63328,0.85519 -4,1c-0.76692,0.08126 -9.7702,0.06369 -11.03856,0.06369c-7.59724,-0.03859 -17.88417,-0.32506 -24.26638,-5.14827c-2.51376,-1.89972 -5.75108,-3.61283 -6.77354,-6.59317c-1.01711,-2.96475 0.35779,-6.32654 1.31756,-9.31034c0.73454,-2.28359 2.35104,-4.18657 3.66865,-6.19112c4.47196,-6.80344 10.39136,-11.91579 15.72012,-17.92592c4.44301,-5.01111 9.58883,-9.69026 13.84792,-14.82535c1.83058,-2.20709 3.13389,-4.82288 5,-7c2.16887,-2.53036 4.87172,-4.5652 7.06431,-7.07503c4.71033,-5.39186 5.65129,-7.6853 9.04129,-13.64796c0,0 2.80493,-4.90863 7.84291,-4.43187c0.00131,-3.10979 0.03716,-6.22558 0.03716,-9.35094c0,-7.56841 -0.9398,-15.86076 0.10976,-23.36155c0.38889,-2.77929 1.5448,-5.40664 2.02952,-8.17084c1.79368,-10.22885 3.48139,-21.1799 7.56303,-30.8508c2.76183,-6.54378 8.63456,-11.49513 10.73389,-18.30475c0,0 1.7432,-5.22959 6.6334,-5.86206c2.02853,-5.93791 4.23957,-12.06921 5.80612,-15.18736c7.98943,-15.90261 20.2268,-26.9161 32.61387,-39.27306c4.40234,-4.39164 12.3444,-13.40006 19.95946,-9.96162c6.80018,3.0705 9.23866,13.38561 11.15455,19.40654c2.41318,7.58377 4.50111,14.16415 8.95012,20.82258c1.01911,1.52522 7.20986,9.30706 7.33641,9.54338c3.43148,6.40776 5.05463,14.9754 6.77089,21.82303c0.75944,2.27446 1.51887,4.54891 2.27832,6.82337c4.20932,-0.81904 7.57107,2.54271 7.57107,2.54271c6.64697,6.79869 8.37873,15.10943 10.29854,24.21842c1.18545,5.6246 2.58193,11.23436 3.14968,16.95442c0.70349,7.08766 0.04137,14.73896 0.04137,21.83757c0,3.88572 0.22923,7.96494 0.33515,12.04105c0.7576,-0.13588 1.49163,-0.3009 2.16485,-0.54105c0,0 8.5,0 8.5,8.5c0,0.85081 -0.08516,1.61646 -0.23843,2.30546c0.90216,0.90827 1.84475,1.77747 2.74884,2.68412c2.13292,2.13896 4.06915,4.48986 6.3785,6.437c1.83767,1.54944 4.12869,2.49136 6,4c0.3895,0.31401 7.94559,7.88708 8.6215,8.563c3.12234,3.12234 5.85878,6.17652 8.563,9.62151c1.39438,1.77634 3.5574,2.94781 4.65712,4.92019c2.43638,4.3697 2.37986,6.78189 2.26947,11.46872c-0.04298,1.8246 0.24987,3.74465 -0.36472,5.46316c-2.29773,6.42491 -6.72074,8.62647 -11.86207,12.88461c-2.87494,1.11785 -16.11653,6.23475 -18.79113,7.40627c-5.44343,2.38432 -6.34767,3.71998 -12.06002,5.39358c-2.74573,0.80444 -5.62639,1.28376 -8.5471,1.48646c0.99877,1.71504 1.87101,3.51288 2.39767,5.41302zM188.35547,267.1515c1.88473,-2.37694 4.22504,-4.73237 6.0795,-7.30034c-2.00488,-1.08224 -3.93714,-3.14934 -4.00429,-7.09754c-1.22803,-1.67193 -2.24995,-3.51219 -3.39736,-5.24318c-1.88553,-2.84452 -4.29296,-5.36967 -5.8268,-8.41825c-1.27568,-2.53546 -1.65181,-5.49132 -2.43866,-8.17529c-0.91738,-3.12923 -1.73047,-6.33882 -2.10395,-9.58222c-1.29863,1.91168 -2.87116,3.93633 -5.31367,6.77495c-2.13085,2.47643 -4.80956,4.44448 -6.93569,6.92497c-1.86611,2.17712 -3.15964,4.80107 -5,7c-1.90187,2.27242 -7.99114,7.76924 -10.15208,10.17465c-2.78715,3.10245 -5.37416,6.39257 -8.32318,9.34158c-3.55109,3.55109 -6.8583,7.24259 -9.71815,11.38442c3.78494,0.95096 7.87926,1.13097 11.70774,1.10517c2.98722,0 5.99466,0.41259 8.96144,0.06368c1.36496,-0.16053 2.63505,-0.83937 4,-1c5.46026,-0.64258 11.09255,0.34879 16.5685,-0.05068c4.19913,-0.30632 8.38587,-0.91404 12.59313,-1.00239c0.01209,-0.01951 0.02418,-0.03901 0.03627,-0.05851l-0.96066,-0.05473c0,0 0.49661,-0.24831 1.29944,-0.49107c0.91772,-1.47514 1.85254,-2.93831 2.92846,-4.29521zM208.86776,268.44977c-2.31603,3.3235 -4.84668,6.36715 -7.36548,9.47954c-2.25403,2.78523 -3.70597,6.23174 -6,9c-1.71644,2.07128 -4.08393,3.50405 -6.18451,5.1845c-0.39798,0.31838 -0.73075,0.7103 -1.0711,1.09332c0.13175,0.08805 0.26405,0.17513 0.39714,0.26084c1.32505,1.65965 2.43431,0.22352 5.32361,0.63612c2.78528,0.39774 5.42244,1.50422 8.14312,2.22107c2.22441,0.5861 4.57939,0.4556 6.85688,0.77893c3.91855,0.55632 7.86897,1.17206 11.64938,2.37251c3.70617,1.17687 7.85606,3.18192 11.67361,3.67356c1.32241,0.1703 2.68007,-0.18856 4,0c3.01484,0.43069 5.98924,1.52463 9,2c2.9983,0.47339 6.57644,-0.10975 9.63845,-0.10975c5.66667,0 11.33333,0 17,0c2.87128,0 6.14461,0.5061 8.96144,0.06368c1.35773,-0.21324 2.63751,-0.81971 4,-1c3.13908,-0.41537 6.58512,0.53424 9.67701,0.04607c1.0412,-0.16439 1.95507,-0.86131 3,-1c0.3687,-0.04893 3.91529,-0.10474 6.35969,-0.11642c-0.5541,-1.3524 -1.11111,-2.704 -1.38838,-4.13178c-0.28024,-1.44311 0.25481,-2.94499 0.11763,-4.40865c-0.18604,-1.98499 -2.91632,-2.78423 -3.95792,-4.48419c-1.08749,-1.77485 -1.37945,-5.11175 -2.0407,-7.63404c-1.44434,-1.00056 -2.72142,-2.6023 -3.10885,-5.16638c-1.79336,-2.18485 -3.80495,-4.40476 -5.41993,-6.5683c-1.15183,-1.54308 -2.05442,-3.36334 -3.5889,-4.52659c-1.69306,-1.28346 -3.55831,-2.32249 -5.32605,-3.50098l-0.29215,-0.62306c-1.63792,0.21108 -3.33418,0.0162 -4.9929,0.05064c-5.32622,0.11057 -10.67291,0 -16,0c-0.48194,0 -0.96406,0.00066 -1.44635,0.00192c0.01922,1.38286 0.00318,2.75255 -0.07504,4.10063c-0.32218,5.55253 -0.97862,10.79619 -0.97862,16.39745v4c0,0 0,8.5 -8.5,8.5c-8.5,0 -8.5,-8.5 -8.5,-8.5v-4c0,-5.99558 0.66726,-11.66893 1.02139,-17.60256c0.05354,-0.89712 0.08324,-1.79776 0.09546,-2.70102c-9.04865,0.13334 -18.10916,0.23317 -27.10457,-0.08875c-1.37,1.87001 -2.06611,4.13874 -3.5734,6.30169zM239.49256,242.50185c0.14481,-1.36672 0.8168,-2.63789 1,-4c0.68306,-5.07855 -0.06368,-10.81222 -0.06368,-15.96144c0,0 0,-8.5 8.5,-8.5c8.5,0 8.5,8.5 8.5,8.5c0,5.89671 0.62452,12.19057 -0.06368,18.03856c-0.16063,1.36495 -0.83947,2.63504 -1,4c-0.01816,0.1544 -0.0353,0.3091 -0.05145,0.46407c0.53863,-0.00172 1.07701,-0.00262 1.61514,-0.00262c3.66666,0 7.33333,0 11,0c3.88536,0 6.08727,0.82071 9.19868,-1.10263l4.80132,-0.89737c0,0 0.64657,0 1.58305,0.17833c0.87655,-2.16013 1.74057,-4.32812 2.78127,-6.41281c2.73025,-5.46915 6.29332,-10.56661 9.03305,-16.06683c6.29158,-12.31172 5.10263,-24.64906 5.10263,-38.19869c0,-8.14024 0.6658,-16.40898 -0.84924,-24.40618c-1.17498,-6.2022 -2.36688,-12.40799 -3.89697,-18.53226c-0.11256,-0.45053 -0.21459,-0.87465 -0.3121,-1.27685c-0.24017,0.09842 -0.49126,0.19161 -0.75375,0.27911c-3.80485,1.26828 -6.41284,0.14284 -8.10633,-1.39977c-7.52321,2.03362 -14.49968,1.8381 -22.5816,1.83595c-13.0802,-0.00348 -26.23933,-0.17213 -39.04894,-3.25064c-7.60854,-1.82855 -13.96104,-5.51066 -21.10788,-8.35731c0,0 -0.13868,-0.05547 -0.37192,-0.17009c-1.40151,2.12138 -2.70559,4.29407 -3.67357,6.66123c-3.49359,8.54349 -4.84037,18.15698 -6.43697,27.1492c-0.47045,2.64966 -1.57534,5.16722 -1.97048,7.82916c-0.96018,6.46837 0.10976,14.07218 0.10976,20.63845c0,9.1961 -0.32438,18.27652 0.97861,27.39745c-0.06512,3.12539 0.76121,6.2388 1.68241,9.22606c0.59234,1.92085 0.67193,4.02206 1.56134,5.82471c1.02789,2.08333 2.87991,3.65192 4.1732,5.58175c1.0868,1.62172 1.63528,3.68605 3.11485,4.95962l1.23881,2.01152c1.78179,0.21413 3.56374,0.43442 5.35333,0.52027c9.52632,0.45704 19.14631,0.35169 28.75377,0.19809c0.04349,-0.92262 0.11033,-1.84228 0.20736,-2.75803zM229.97782,119.29105c11.46723,2.69854 23.25518,2.75256 34.95106,2.74935c5.5978,-0.00154 10.75578,0.4871 16.00311,-0.62066c-0.72138,-2.16761 -1.44275,-4.33523 -2.16413,-6.50284c-0.62184,-2.49386 -3.16062,-14.36712 -5.22911,-18.17697c-1.71238,-3.15396 -4.67529,-5.46891 -6.66359,-8.45663c-2.49016,-3.74184 -6.39961,-10.91485 -7.84763,-14.60941c-1.34317,-3.42702 -2.1019,-7.05549 -3.20225,-10.56801c-0.41956,-1.33933 -1.0046,-2.64211 -1.51945,-3.95917c-0.45314,0.47046 -0.90545,0.9418 -1.36654,1.40409c-6.44625,6.46311 -13.12447,12.69918 -19.39777,19.33029c-8.91679,9.42538 -12.96688,22.08987 -16.87945,34.22719c4.32604,2.01134 8.61484,4.07651 13.31575,5.18275z" fill="#000000"/><path d="M297.83905,255.43952c0.09616,-0.13287 0.18803,-0.26922 0.27521,-0.40889c1.97296,-3.16062 2.73576,-7.42914 4.40049,-10.75122c2.70806,-5.4041 6.25128,-10.52996 8.98202,-15.97366c1.96815,-4.0026 3.63043,-8.05426 4.8564,-12.24002c3.43101,3.94328 7.21207,7.61759 11.19522,10.9988c1.83249,1.55556 4.13871,2.51619 6.02212,4.0097c2.73619,2.16976 4.92739,4.99605 7.39666,7.46532c1.80261,1.80261 3.81587,3.4272 5.43813,5.39369c1.81271,2.19735 2.72027,4.60592 5.34105,6.08982c0.85919,0.48648 -0.31631,2.06328 0.04774,2.97605c-0.04319,-0.07294 -0.10252,-0.15059 -0.14123,-0.12144c-1.37654,1.03638 -2.63769,2.22998 -3.9546,3.34114c-6.66136,2.37331 -10.28022,3.575 -17.23855,6.61586c-3.67798,1.60732 -6.22848,3.44237 -9.9616,4.60735c-3.81482,1.19048 -8.62946,1.20828 -12.78775,0.49648c-1.02287,-1.13611 -2.10452,-2.24116 -3.01517,-3.46113c-2.21911,-2.97289 -4.31066,-6.26324 -6.85615,-9.03785z" data-paper-data="{&quot;noHover&quot;:false,&quot;origItem&quot;:[&quot;Path&quot;,{&quot;applyMatrix&quot;:true,&quot;segments&quot;:[[[304.72888,264.4404],[-2.21911,-2.97289],[0.91065,1.21997]],[[307.73824,267.89697],[-1.02287,-1.1361],[4.15828,0.7118]],[[320.50683,267.39278],[-3.81483,1.19048],[3.73312,-1.16499]],[[330.4468,262.78636],[-3.67799,1.60731],[6.95832,-3.04086]],[[347.65567,256.19263],[-6.66135,2.37331],[1.31691,-1.11116]],[[351.60642,252.85916],[-1.37654,1.03638],[0.03872,-0.02914]],[[351.74769,252.9805],[-0.04319,-0.07294],[-0.36405,-0.91277]],[[351.69835,250.00911],[0.85919,0.48648],[-2.62078,-1.4839]],[[346.35547,243.9293],[1.81271,2.19735],[-1.62226,-1.96649]],[[340.91847,238.55081],[1.80261,1.80261],[-2.46927,-2.46927]],[[333.53997,231.11381],[2.73619,2.16976],[-1.88341,-1.49351]],[[327.53997,227.11381],[1.83249,1.55556],[-3.98315,-3.38121]],[[316.36879,216.11323],[3.43101,3.94328],[-1.22597,4.18576]],[[311.53151,228.34171],[1.96815,-4.0026],[-2.73073,5.4437]],[[302.56456,244.27488],[2.70806,-5.4041],[-1.66473,3.32208]],[[298.15941,255.00911],[1.97297,-3.16062],[-0.08718,0.13967]],[[297.88401,255.41763],[0.09616,-0.13287],[2.54548,2.7746]]],&quot;closed&quot;:true}]}" fill="#ccd5c8"/><path d="M185.46154,271.48285c-0.80283,0.24277 -1.30091,0.49241 -1.30091,0.49241l0.89374,-0.01956c-0.01209,0.0195 0.04344,0.11268 0.03135,0.13219c-4.20726,0.08835 -8.40997,0.70592 -12.60909,1.01224c-5.47595,0.39946 -11.13927,-0.5904 -16.59953,0.05218c-1.36495,0.16063 -2.64102,0.83742 -4.00598,0.99795c-2.96678,0.34891 -5.98523,-0.07001 -8.97245,-0.07001c-3.82847,0.0258 -7.93172,-0.16293 -11.71666,-1.11389c2.85985,-4.14183 6.16386,-7.83785 9.71494,-11.38894c2.94902,-2.94901 5.53082,-6.25025 8.31797,-9.3527c2.16094,-2.40541 8.27224,-7.96071 10.17411,-10.23314c1.84036,-2.19893 3.16557,-4.82949 5.03168,-7.00661c2.12613,-2.48048 4.81853,-4.44481 6.94939,-6.92124c2.44251,-2.83862 4.01834,-4.86169 5.31697,-6.77337c0.37348,3.2434 1.19773,6.46096 2.11511,9.59019c0.78685,2.68397 1.17384,5.65478 2.44952,8.19025c1.53385,3.04858 3.94608,5.59454 5.8316,8.43906c1.14741,1.73099 2.16855,3.58067 3.39658,5.25261c0.06715,3.94821 1.99691,6.02429 4.00179,7.10652c-1.85446,2.56796 -4.20165,4.93579 -6.08638,7.31272c-1.07592,1.3569 -2.01603,2.82601 -2.93376,4.30114z" data-paper-data="{&quot;noHover&quot;:false,&quot;origItem&quot;:[&quot;Path&quot;,{&quot;applyMatrix&quot;:true,&quot;segments&quot;:[[[188.35547,267.15149],[-1.07592,1.3569],[1.88473,-2.37694]],[[194.43497,259.85116],[-1.85446,2.56796],[-2.00488,-1.08224]],[[190.43068,252.75361],[0.06715,3.94821],[-1.22803,-1.67193]],[[187.03332,247.51043],[1.14741,1.73099],[-1.88553,-2.84452]],[[181.20652,239.09218],[1.53385,3.04858],[-1.27568,-2.53546]],[[178.76786,230.91689],[0.78685,2.68397],[-0.91738,-3.12923]],[[176.66391,221.33467],[0.37348,3.2434],[-1.29863,1.91168]],[[171.35024,228.10961],[2.44251,-2.83862],[-2.13085,2.47643]],[[164.41455,235.03458],[2.12613,-2.48048],[-1.86611,2.17712]],[[159.41455,242.03458],[1.84036,-2.19893],[-1.90187,2.27242]],[[149.26247,252.20923],[2.16094,-2.40541],[-2.78715,3.10245]],[[140.93929,261.55081],[2.94902,-2.94901],[-3.55109,3.55109]],[[131.22114,272.93523],[2.85985,-4.14183],[3.78494,0.95096]],[[142.92888,274.0404],[-3.82847,0.02579],[2.98722,0]],[[151.89032,274.10408],[-2.96678,0.34891],[1.36496,-0.16053]],[[155.89032,273.10408],[-1.36495,0.16063],[5.46026,-0.64258]],[[172.45882,273.0534],[-5.47595,0.39947],[4.19913,-0.30632]],[[185.05195,272.05102],[-4.20726,0.08835],[0.01209,-0.01951]],[[185.08822,271.9925],[-0.01209,0.0195],[0,0]],[184.12756,271.93777],[[185.42701,271.4467],[-0.80283,0.24276],[0.91772,-1.47514]]],&quot;closed&quot;:true}]}" fill="#ccd5c8"/><path d="M212.39904,262.12113c8.99541,0.32193 18.08344,0.20121 27.13209,0.06787c-0.01223,0.90326 -0.01062,1.89884 -0.06416,2.79596c-0.35413,5.93363 -0.98862,11.5671 -0.98862,17.56268l-0.00267,3.97516c0,0 -0.0505,8.46772 8.4495,8.46772c8.5,0 8.45591,-8.46485 8.45591,-8.46485l-0.00186,-3.97931c0,-5.60126 0.68069,-10.8078 1.00288,-16.36033c0.07822,-1.34808 0.09798,-2.71579 0.07876,-4.09865c0.48229,-0.00126 1.0101,-0.09084 1.49203,-0.09084c5.32709,0 10.68925,0.12376 16.01547,0.01319c1.65872,-0.03443 3.35722,0.16357 4.99514,-0.04751l0.29261,0.62379c1.76774,1.17849 3.63627,2.22357 5.32933,3.50704c1.53449,1.16326 2.43935,2.98948 3.59118,4.53256c1.61497,2.16354 3.62835,4.39151 5.42171,6.57636c0.38743,2.56408 1.66494,4.17128 3.10929,5.17185c0.66125,2.52229 0.95286,5.86645 2.04035,7.64129c1.0416,1.69995 3.77134,2.50261 3.95738,4.4876c0.13718,1.46366 -0.3987,2.96916 -0.11846,4.41228c0.27727,1.42778 0.83342,2.78224 1.38752,4.13463c-2.4444,0.01169 -5.99163,0.06932 -6.36033,0.11825c-1.04493,0.13869 -1.95952,0.83737 -3.00071,1.00176c-3.09189,0.48817 -6.53975,-0.4576 -9.67882,-0.04223c-1.36249,0.18029 -2.64395,0.78967 -4.00167,1.00292c-2.81683,0.44241 -6.0942,-0.05804 -8.96549,-0.05804c-5.66666,0 -11.35275,0.01433 -17.01941,0.01433c-3.06201,0 -6.66111,0.58691 -9.65942,0.11352c-3.01076,-0.47537 -6.00577,-1.5746 -9.0206,-2.00529c-1.31993,-0.18856 -2.68402,0.16644 -4.00643,-0.00387c-3.81755,-0.49164 -7.98103,-2.51113 -11.6872,-3.688c-3.78041,-1.20044 -7.73536,-1.82554 -11.65392,-2.38185c-2.27749,-0.32333 -4.6335,-0.19603 -6.85791,-0.78212c-2.72067,-0.71686 -5.35882,-1.82734 -8.1441,-2.22508c-2.8893,-0.4126 -3.99881,1.02213 -5.32387,-0.63752c-0.13309,-0.08571 -0.26544,-0.17307 -0.39719,-0.26112c0.34035,-0.38302 0.673,-0.77572 1.07098,-1.0941c2.10057,-1.68046 4.46762,-3.11736 6.18406,-5.18864c2.29403,-2.76826 3.74627,-6.22437 6.00031,-9.0096c2.5188,-3.11239 5.05275,-6.16858 7.36878,-9.49208c1.50729,-2.16295 2.20756,-4.43971 3.57756,-6.30971z" data-paper-data="{&quot;noHover&quot;:false,&quot;origItem&quot;:[&quot;Path&quot;,{&quot;applyMatrix&quot;:true,&quot;segments&quot;:[[[400.87777,493.81873],[3.01458,-4.3259],[-4.63207,6.647]],[[386.14682,512.77781],[5.03759,-6.22479],[-4.50807,5.57047]],[[374.14682,530.77781],[4.58805,-5.53652],[-3.43288,4.14255]],[[361.77781,541.14682],[4.20115,-3.36092],[-0.79595,0.63676]],[[359.63561,543.33346],[0.68071,-0.76604],[0.2635,0.1761]],[[360.4299,543.85514],[-0.26619,-0.17142],[2.65011,3.31929]],[[371.07712,545.12737],[-5.7786,-0.82519],[5.57055,0.79548]],[[387.36335,549.56951],[-5.44135,-1.43371],[4.44882,1.17219]],[[401.07712,551.12737],[-4.55498,-0.64667],[7.83711,1.11263]],[[424.37587,555.87238],[-7.56082,-2.40088],[7.41234,2.35373]],[[447.7231,563.21951],[-7.6351,-0.98328],[2.64482,0.34061]],[[455.7231,563.21951],[-2.63987,-0.37712],[6.02967,0.86138]],[[473.7231,567.21951],[-6.02152,-0.95073],[5.99661,0.94679]],[[493,567],[-6.12402,0],[11.33333,0]],[[527,567],[-11.33333,0],[5.74256,0]],[[544.92288,567.12737],[-5.63366,0.88483],[2.71545,-0.42649]],[[552.92288,565.12737],[-2.72498,0.36058],[6.27815,-0.83074]],[[572.2769,565.21951],[-6.18378,0.97634],[2.08239,-0.32878]],[[578.2769,563.21951],[-2.08986,0.27737],[0.7374,-0.09787]],[[590.99627,562.98666],[-4.8888,0.02338],[-1.10821,-2.70479]],[[588.21951,554.7231],[0.55453,2.85556],[-0.56048,-2.88623]],[[588.45477,545.9058],[0.27436,2.92732],[-0.37208,-3.96997]],[[580.53894,536.93743],[2.0832,3.39991],[-2.17498,-3.54969]],[[576.45755,521.66936],[1.3225,5.04458],[-2.88869,-2.00113]],[[570.23985,511.3366],[0.77485,5.12817],[-3.58672,-4.3697]],[[559.4,498.2],[3.22994,4.32707],[-2.30366,-3.08616]],[[552.22219,489.14682],[3.06897,2.32651],[-3.38612,-2.56693]],[[541.5701,482.14486],[3.53547,2.35698],[0,0]],[[540.98581,480.89873],[0,0],[-3.27584,0.42216]],[[531,481],[3.31744,-0.06887],[-10.65244,0.22115]],[[499,481],[10.65418,0],[-0.96387,0]],[[496.10731,481.00384],[0.96458,-0.00252],[0.03844,2.76573]],[[495.95723,489.20511],[0.15644,-2.69617],[-0.64437,11.10505]],[[494,522],[0,-11.20252],[0,0]],[494,530],[[477,547],[17,0],[-17,0]],[460,530],[[460,522],[0,0],[0,-11.99115]],[[462.04277,486.79489],[-0.70825,11.86725],[0.10708,-1.79425]],[[462.2337,481.39285],[-0.02446,1.80652],[-18.09731,0.26668]],[[408.02457,481.21534],[17.99081,0.64385],[-2.74001,3.74002]]],&quot;closed&quot;:true}]}" fill="#939a91"/><path d="M216.62169,114.13779c3.91257,-12.13732 7.96219,-24.86013 16.87897,-34.28551c6.2733,-6.63111 12.9992,-12.88788 19.44545,-19.35099c0.46108,-0.46229 0.9152,-0.93334 1.36834,-1.4038c0.51486,1.31706 1.10364,2.62065 1.5232,3.95998c1.10035,3.51252 1.87253,7.14661 3.2157,10.57363c1.44803,3.69455 5.38125,10.90391 7.8714,14.64575c1.98829,2.98771 4.95018,5.3211 6.66255,8.47506c2.06848,3.80985 4.59757,15.70262 5.21941,18.19648c0.72137,2.16761 1.44,4.33835 2.16138,6.50596c-5.24733,1.10777 -10.41857,0.62901 -16.01637,0.63055c-11.69589,0.00321 -23.53413,-0.0535 -35.00136,-2.75204c-4.70091,-1.10625 -9.00263,-3.18371 -13.32868,-5.19505z" data-paper-data="{&quot;noHover&quot;:false,&quot;origItem&quot;:[&quot;Path&quot;,{&quot;applyMatrix&quot;:true,&quot;segments&quot;:[[[443.09788,195.50129],[-9.40181,-2.21249],[22.93446,5.39707]],[[513,201],[-23.39177,0.00642],[11.1956,-0.00307]],[[545.00621,199.75868],[-10.49465,2.21553],[-1.44275,-4.33523]],[[540.67796,186.75299],[1.44275,4.33523],[-1.24368,-4.98772]],[[530.21975,150.39906],[4.13696,7.6197],[-3.42476,-6.30793]],[[516.89258,133.48581],[3.97659,5.97543],[-4.98032,-7.48368]],[[501.19731,104.26699],[2.89605,7.38911],[-2.68634,-6.85404]],[[494.79281,83.13098],[2.2007,7.02504],[-0.83913,-2.67865]],[[491.7539,75.21264],[1.02971,2.63413],[-0.90627,0.94093]],[[489.02082,78.02082],[0.92217,-0.92458],[-12.8925,12.92623]],[[450.22527,116.6814],[12.5466,-13.26223],[-17.83357,18.85075]],[[416.46638,185.13579],[7.82514,-24.27464],[8.65209,4.02268]]],&quot;closed&quot;:true}]}" fill="#ccd5c8"/><path d="M239.27892,245.30948c-9.60746,0.1536 -19.24741,0.25191 -28.77373,-0.20513c-1.78959,-0.08586 -3.57435,-0.30801 -5.35614,-0.52214l-1.24005,-2.01243c-1.47958,-1.27357 -2.03112,-3.34044 -3.11793,-4.96216c-1.29328,-1.92983 -3.14889,-3.50198 -4.17678,-5.58531c-0.88941,-1.80265 -0.97164,-3.907 -1.56398,-5.82785c-0.9212,-2.98726 -1.7513,-6.10632 -1.68617,-9.23171c-1.30299,-9.12093 -0.98516,-18.22327 -0.98516,-27.41937c0,-6.56627 -1.06764,-14.18828 -0.10746,-20.65665c0.39515,-2.66194 1.5026,-5.18594 1.97305,-7.8356c1.5966,-8.99222 2.95543,-18.6216 6.44902,-27.16509c0.96797,-2.36716 2.27591,-4.54291 3.67743,-6.66429c0.23324,0.11462 0.37203,0.17001 0.37203,0.17001c7.14685,2.84664 13.50928,6.52326 21.11782,8.35181c12.80961,3.07851 26.00576,3.24671 39.08597,3.25019c8.08192,0.00215 15.07237,0.20587 22.59559,-1.82776c1.69349,1.54261 4.30532,2.67159 8.11018,1.40331c0.26249,-0.0875 0.51375,-0.18051 0.75392,-0.27894c0.09752,0.4022 0.20012,0.82693 0.31268,1.27746c1.5301,6.12427 2.72978,12.34103 3.90476,18.54323c1.51504,7.9972 0.85482,16.28568 0.85482,24.42592c0,13.54962 1.18015,25.91893 -5.11144,38.23065c-2.73973,5.50022 -6.31256,10.60815 -9.04282,16.0773c-1.0407,2.08469 -1.90838,4.25535 -2.78492,6.41548c-0.93649,-0.17833 -1.58382,-0.17783 -1.58382,-0.17783l-4.80429,0.89913c-3.11141,1.92334 -5.31957,1.10549 -9.20493,1.10549c-3.66667,0 -7.34165,0.00234 -11.00832,0.00234c-0.53813,0 -1.07782,0.00114 -1.61645,0.00286c0.01616,-0.15497 0.01711,-0.40835 0.03526,-0.56275c0.16053,-1.36496 0.83791,-2.63479 0.99854,-3.99974c0.68821,-5.84798 0.05914,-12.14073 0.05914,-18.03744c0,0 0.01807,-8.4022 -8.48193,-8.4022c-8.5,0 -8.49533,8.4009 -8.49533,8.4009c0,5.14922 0.7441,10.8825 0.06104,15.96105c-0.1832,1.36211 -0.86754,2.73251 -1.01236,4.09923c-0.09704,0.91575 -0.16375,1.83542 -0.20724,2.75804z" data-paper-data="{&quot;noHover&quot;:false,&quot;origItem&quot;:[&quot;Path&quot;,{&quot;applyMatrix&quot;:true,&quot;segments&quot;:[[[462.12737,441.92288],[-0.19407,1.83151],[0.28963,-2.73344]],[[464.12737,433.92288],[-0.36641,2.72421],[1.36613,-10.1571]],[[464,402],[0,10.29844],[0,0]],[[481,385],[-17,0],[17,0]],[[498,402],[0,0],[0,11.79342]],[[497.87263,438.07712],[1.37642,-11.69597],[-0.32126,2.7299]],[[495.87263,446.07712],[0.32106,-2.72992],[-0.03632,0.3088]],[[495.76973,447.00525],[0.03231,-0.30994],[1.07725,-0.00344]],[[499,447],[-1.07625,0],[7.33333,0]],[[521,447],[-7.33333,0],[7.77071,0]],[[539.39737,444.79474],[-6.22282,3.84668],[0,0]],[549,443],[[552.16611,443.35665],[-1.87297,-0.35665],[1.75309,-4.32027]],[[557.72864,430.53103],[-2.08139,4.16938],[5.4605,-10.9383]],[[575.79474,398.39737],[-5.47947,11.00044],[12.58316,-24.62345]],[[586,322],[0,27.09925],[0,-16.28048]],[[584.30153,273.18764],[3.03007,15.9944],[-2.34996,-12.40441]],[[576.50758,236.12311],[3.06019,12.24855],[-0.22512,-0.90106]],[[575.88337,233.5694],[0.19503,0.80441],[-0.48033,0.19685]],[[574.37587,234.12762],[0.52497,-0.17499],[-7.60971,2.53657]],[[558.1632,231.32809],[3.38699,3.08521],[-15.04642,4.06725]],[[513,235],[16.16385,0.0043],[-26.1604,-0.00696]],[[434.90212,228.49871],[25.61922,6.15703],[-15.21709,-3.6571]],[[392.68636,211.7841],[14.29369,5.69329],[0,0]],[[391.94253,211.44392],[0.46647,0.22924],[-2.80303,4.24275]],[[384.59539,224.76637],[1.93595,-4.73431],[-6.98718,17.08698]],[[371.72146,279.06478],[3.19319,-17.98445],[-0.94091,5.29933]],[[367.78049,294.7231],[0.79029,-5.32388],[-1.92037,12.93674]],[[368,336],[0,-13.13255],[0,18.3922]],[[369.95723,390.79489],[-2.60598,-18.24186],[-0.13025,6.25078]],[[373.32204,409.24701],[-1.8424,-5.97451],[1.18469,3.84171]],[[376.44472,420.89643],[-1.77881,-3.60529],[2.05578,4.16666]],[[384.79112,432.05993],[-2.58657,-3.85966],[2.17361,3.24345]],[[391.02082,441.97918],[-2.95915,-2.54715],[0,0]],[[393.49845,446.00222],[0,0],[3.56358,0.42826]],[[404.20511,447.04277],[-3.57919,-0.17172],[19.05263,0.91409]],[[461.71264,447.43895],[-19.21492,0.3072],[0.08698,-1.84524]]],&quot;closed&quot;:true}]}" fill="#00b31e"/><path d="M232.5513,168.48006c-0.82512,1.00828 -1.26544,2.28137 -1.12242,4.06035c0.08013,0.99678 0.17015,2.01458 0,3c-0.05606,0.32466 -0.84624,0.48477 -0.64703,0.74719c0.50179,0.66098 1.51311,0.71941 2.15744,1.2424c4.42756,3.59373 8.15196,7.12766 13.67753,8.9466c4.23829,1.39518 4.92137,1.67473 9.25051,0.8176c0.97574,-0.19319 2.11387,-0.50431 2.67265,-1.3272c0.84919,-0.53382 1.79215,-0.94159 2.54758,-1.60145c4.3308,-3.78294 1.39786,-10.94547 2.3827,-15.66271c0.14672,-0.70278 1.64045,-1.05516 1.32335,-1.69926c-0.59069,-1.19983 -2.67451,-1.06889 -3.33343,-2.23264c-0.58166,-1.02728 -2.35089,0.25251 -3.53129,0.26947c-3.59476,0.05166 -8.58189,-0.92225 -12.0471,-0.22738c-1.50971,0.30274 -2.84572,1.13027 -4.21854,1.863l0.27605,-0.1252c0,0 -4.37246,4.37245 -9.38799,1.92924zM237.93856,149.82387c1.30541,-0.65197 2.61832,-1.27264 4.03742,-1.55608c2.60068,-0.51944 5.30133,-0.17695 7.9529,-0.22738c6.73363,-0.1281 14.35432,-1.13968 20.46872,2.26947c2.80093,1.56169 10.62172,11.65021 10.66656,11.76736c0.9923,2.59268 -0.52303,5.5289 -0.67665,8.30074c-0.21042,3.79693 0.49117,7.7494 -0.06839,11.52398c-1.06377,7.17578 -5.16143,13.15462 -11.00134,17.21186c-13.54775,11.94929 -32.76089,3.57952 -44.88309,-6.08774c-2.02459,-1.61458 -8.96052,-9.37304 -9.35879,-10.23286c-1.15223,-2.48755 -1.02882,-13.91829 -0.28231,-16.71598c0.4253,-1.59389 1.76375,-2.79487 2.4996,-4.27132c0.68085,-1.3661 0.74485,-3.07831 1.74012,-4.23555c3.68709,-4.28712 6.53734,-5.31665 11.09425,-7.6326c0,0 4.1203,-2.06015 7.811,-0.1139z" fill="#000000"/><path d="M241.91311,166.50822l-0.27718,0.12592c1.37282,-0.73273 2.72777,-1.56768 4.23749,-1.87041c3.46522,-0.69486 8.49453,0.29151 12.08929,0.23985c1.18039,-0.01696 2.95434,-1.29179 3.53599,-0.26451c0.65893,1.16375 2.74833,1.04114 3.33902,2.24096c0.3171,0.6441 -1.1755,0.99875 -1.32222,1.70153c-0.98484,4.71724 1.94529,11.92752 -2.38551,15.71045c-0.75542,0.65986 -1.70402,1.07503 -2.55321,1.60885c-0.55878,0.82289 -1.70449,1.14073 -2.68023,1.33392c-4.32914,0.85713 -5.04705,0.58669 -9.28534,-0.8085c-5.52557,-1.81894 -9.29411,-5.39769 -13.72167,-8.99141c-0.64433,-0.52299 -1.65588,-0.58567 -2.15767,-1.24665c-0.19922,-0.26242 0.59099,-0.42479 0.64705,-0.74945c0.17015,-0.98542 0.08123,-2.01214 0.0011,-3.00892c-0.14301,-1.77898 0.30143,-3.06381 1.12655,-4.07209c5.01553,2.44321 9.40655,-1.94954 9.40655,-1.94954z" data-paper-data="{&quot;noHover&quot;:false,&quot;origItem&quot;:[&quot;Path&quot;,{&quot;applyMatrix&quot;:true,&quot;segments&quot;:[[[232.5513,168.48005],[5.01553,2.44321],[-0.82512,1.00828]],[[231.42888,172.5404],[-0.14301,-1.77898],[0.08013,0.99678]],[[231.42888,175.5404],[0.17015,-0.98542],[-0.05606,0.32466]],[[230.78185,176.28759],[-0.19922,-0.26242],[0.50179,0.66098]],[[232.93929,177.52999],[-0.64433,-0.52299],[4.42756,3.59373]],[[246.61681,186.47659],[-5.52557,-1.81894],[4.23829,1.39518]],[[255.86732,187.29419],[-4.32914,0.85713],[0.97574,-0.19319]],[[258.53997,185.96699],[-0.55878,0.82289],[0.84919,-0.53382]],[[261.08755,184.36554],[-0.75543,0.65986],[4.3308,-3.78294]],[[263.47024,168.70283],[-0.98484,4.71724],[0.14672,-0.70278]],[[264.7936,167.00356],[0.3171,0.6441],[-0.59069,-1.19983]],[[261.46016,164.77093],[0.65892,1.16375],[-0.58166,-1.02728]],[[257.92888,165.0404],[1.18039,-0.01696],[-3.59476,0.05166]],[[245.88178,164.81301],[3.46522,-0.69486],[-1.50971,0.30274]],[[241.66324,166.67601],[1.37282,-0.73273],[0,0]],[241.93929,166.55081]],&quot;closed&quot;:true}]}" fill="#5bb2d6"/></g></g></svg>