<svg version="1.1" xmlns="http://www.w3.org/2000/svg" xmlns:xlink="http://www.w3.org/1999/xlink" width="149.5" height="86.91661" viewBox="0,0,149.5,86.91661"><defs><linearGradient x1="240" y1="124.66676" x2="240" y2="209.22998" gradientUnits="userSpaceOnUse" id="color-1"><stop offset="0" stop-color="#444459" stop-opacity="0"/><stop offset="1" stop-color="#444459"/></linearGradient></defs><g transform="translate(-165.25,-124.66675)"><g data-paper-data="{&quot;isPaintingLayer&quot;:true}" fill-rule="nonzero" stroke-linecap="butt" stroke-linejoin="miter" stroke-miterlimit="10" stroke-dasharray="" stroke-dashoffset="0" style="mix-blend-mode: normal"><path d="M171.5,209.22998v-84.56322h137v84.56323z" fill="url(#color-1)" stroke="none" stroke-width="0"/><path d="M171.5,205.33337v-41.00001h137v41.00001z" fill="#1ade00" stroke="#ffffff" stroke-width="12.5"/><path d="M171.5,205.33337v-60.66667h137v60.66667z" fill="#c7c900" stroke="none" stroke-width="0"/><path d="M171.5,200.33337v-60.66667h137v60.66667z" fill="#e0e300" stroke="none" stroke-width="0"/><text transform="translate(259.78336,177.43045) scale(0.78778,0.56598)" font-size="40" xml:space="preserve" fill="#000000" fill-rule="nonzero" stroke="none" stroke-width="1" stroke-linecap="butt" stroke-linejoin="miter" stroke-miterlimit="10" stroke-dasharray="" stroke-dashoffset="0" font-family="Serif" font-weight="normal" text-anchor="start" style="mix-blend-mode: normal"><tspan x="0" dy="0">😴</tspan></text><g fill="#231f20" stroke="none" stroke-width="0"><path d="M183.12201,179.84551c-1.13715,0 -2.23543,-0.08379 -3.30454,-0.25836c-1.06912,-0.17457 -2.0216,-0.41199 -2.86718,-0.72621l0.5054,-3.40762c1.03024,0.38406 2.05076,0.68432 3.07128,0.8938c1.02052,0.20948 1.95356,0.31423 2.81858,0.31423c1.00108,0 1.7689,-0.1606 2.30346,-0.48181c0.53456,-0.32121 0.79698,-0.77509 0.79698,-1.37562c0,-0.78208 -0.54427,-1.40355 -1.64255,-1.86442l-2.86718,-1.24993c-1.41901,-0.62147 -2.50756,-1.38958 -3.2851,-2.31131c-0.77754,-0.91475 -1.16631,-1.92726 -1.16631,-3.03753c0,-1.56415 0.57344,-2.77219 1.73003,-3.63107c1.15659,-0.85889 2.77971,-1.28484 4.88878,-1.28484c1.22463,0 2.39093,0.19552 3.48921,0.57958c1.09828,0.38406 2.07992,0.94268 2.9255,1.67588l-2.55616,2.63951c-0.65119,-0.55164 -1.29265,-0.98458 -1.95356,-1.27786c-0.65119,-0.30026 -1.28295,-0.4469 -1.89526,-0.4469c-0.82613,0 -1.4676,0.16061 -1.92441,0.47483c-0.45681,0.31423 -0.69007,0.77509 -0.69007,1.36863c0,0.39802 0.16522,0.76811 0.48596,1.12424c0.32074,0.35612 0.78726,0.67035 1.38013,0.95665l2.70195,1.24993c1.40929,0.65639 2.48812,1.4245 3.25594,2.29735c0.76782,0.87285 1.14687,1.81554 1.14687,2.81408c0,1.59208 -0.64147,2.81408 -1.91469,3.67995c-1.27322,0.85889 -3.081,1.29182 -5.43305,1.29182z"/><path d="M192.97732,179.59413v-17.91095h3.71275v17.91095zM192.97732,179.59413v-3.06546h13.6847v3.06546z"/><path d="M208.57671,179.59413v-17.91095h3.71275v17.91095zM208.57671,164.74863v-3.06546h13.6847v3.06546zM208.57671,172.1644v-3.07943h11.15769v3.07943zM208.57671,179.59413v-3.06546h13.6847v3.06546z"/><path d="M224.16637,179.59413v-17.91095h3.71275v17.91095zM224.16637,164.74863v-3.06546h13.6847v3.06546zM224.16637,172.1644v-3.07943h11.15769v3.07943zM224.16637,179.59413v-3.06546h13.6847v3.06546z"/><path d="M239.75604,179.59413v-17.91095h3.71276v17.91095zM243.12862,174.46175v-3.06546h2.74083c1.22463,0 2.17711,-0.30026 2.84774,-0.90776c0.67063,-0.6075 1.00108,-1.45243 1.00108,-2.53477c0,-1.02647 -0.33045,-1.81554 -1.00108,-2.37416c-0.67063,-0.55863 -1.6134,-0.83096 -2.84774,-0.83096h-2.68251v-3.06546h2.68251c2.49785,0 4.43197,0.53069 5.80239,1.5851c1.37042,1.05441 2.05076,2.54874 2.05076,4.46901c0,2.13674 -0.68034,3.79167 -2.05076,4.96479c-1.37042,1.17311 -3.30454,1.75967 -5.80239,1.75967z"/></g></g></g></svg>