<svg version="1.1" xmlns="http://www.w3.org/2000/svg" xmlns:xlink="http://www.w3.org/1999/xlink" width="149.5" height="76.91667" viewBox="0,0,149.5,76.91667"><g transform="translate(-165.25,-134.6667)"><g data-paper-data="{&quot;isPaintingLayer&quot;:true}" fill-rule="nonzero" stroke-linecap="butt" stroke-linejoin="miter" stroke-miterlimit="10" stroke-dasharray="" stroke-dashoffset="0" style="mix-blend-mode: normal"><path d="M171.5,205.33338v-41.00001h137v41.00001z" fill="#1ade00" stroke="#ffffff" stroke-width="12.5"/><path d="M171.5,205.33338v-60.66667h137v60.66667z" fill="#de0000" stroke="none" stroke-width="0"/><path d="M171.5,195.33338v-60.66667h137v60.66667z" fill="#ff0000" stroke="none" stroke-width="0"/><g fill="#231f20" stroke="none" stroke-width="0"><path d="M177.28435,174.39731v-18.19113h3.24155v18.19113zM184.19142,174.39731l-3.18856,-14.21958h-1.39555v-3.97155h2.74693l3.18856,14.21958h0.85676v3.97155zM186.01093,174.39731v-18.19113h3.24155v18.19113z"/><path d="M197.44027,174.65262c-4.60177,0 -6.90707,-3.07795 -6.90707,-9.22677c0,-6.14881 2.3053,-9.48208 6.90707,-9.48208c4.60177,0 6.90707,3.16306 6.90707,9.48208c0,6.31902 -2.3053,9.22677 -6.90707,9.22677zM197.44027,171.42574c2.24347,0 3.37404,-1.99996 3.37404,-5.99988c0,-3.99992 -1.12174,-6.2552 -3.37404,-6.2552c-2.2523,0 -3.37404,2.08507 -3.37404,6.2552c0,4.17013 1.12174,5.99988 3.37404,5.99988z"/><path d="M225.14804,174.65262c-1.03341,0 -2.03149,-0.0851 -3.00307,-0.26241c-0.97158,-0.1773 -1.83717,-0.41843 -2.60561,-0.73757l0.45929,-3.46092c0.93625,0.39006 1.86367,0.69502 2.79109,0.90778c0.92742,0.21276 1.77535,0.31914 2.56144,0.31914c0.90975,0 1.60753,-0.16312 2.09332,-0.48935c0.48579,-0.32623 0.72427,-0.78722 0.72427,-1.39714c0,-0.79431 -0.49462,-1.4255 -1.4927,-1.89358l-2.60561,-1.26948c-1.28955,-0.63119 -2.2788,-1.41132 -2.98541,-2.34747c-0.70661,-0.92906 -1.05991,-1.95741 -1.05991,-3.08505c0,-1.58862 0.52112,-2.81555 1.5722,-3.68787c1.05108,-0.87232 2.52611,-1.30494 4.44278,-1.30494c1.1129,0 2.17281,0.19858 3.17089,0.58864c0.99808,0.39006 1.89017,0.95743 2.6586,1.70209l-2.32297,2.6808c-0.59178,-0.56027 -1.17473,-0.99998 -1.77535,-1.29785c-0.59178,-0.30496 -1.1659,-0.45389 -1.72235,-0.45389c-0.75077,0 -1.33372,0.16312 -1.74885,0.48226c-0.41513,0.31914 -0.62711,0.78722 -0.62711,1.39004c0,0.40425 0.15015,0.78013 0.44163,1.14182c0.29147,0.36169 0.71544,0.68084 1.25422,0.97161l2.45545,1.26948c1.28072,0.66665 2.26114,1.44678 2.95891,2.33329c0.69777,0.88651 1.04224,1.84394 1.04224,2.8581c0,1.61699 -0.58295,2.8581 -1.74002,3.73751c-1.15707,0.87232 -2.79992,1.31203 -4.93741,1.31203z"/><path d="M233.85695,174.39731v-18.19113h3.37404v18.19113zM234.3869,166.901v-3.1276h11.1732v3.1276zM242.66302,174.39731v-18.19113h3.37404v18.19113z"/><path d="M246.80549,174.39731l5.23771,-18.19113h4.13364l5.23771,18.19113h-3.63902l-3.55069,-13.7515h-0.22965l-3.55069,13.7515zM249.45526,170.95057v-3.1276h9.1947v3.1276z"/><path d="M262.19183,174.39731v-18.19113h3.37404v18.19113zM265.38038,167.73787v-3.11341h3.25922c0.7861,0 1.39555,-0.23404 1.82834,-0.69502c0.4328,-0.46808 0.65361,-1.11345 0.65361,-1.95032c0,-0.83686 -0.22081,-1.49642 -0.65361,-1.95741c-0.4328,-0.46098 -1.04224,-0.69502 -1.82834,-0.69502h-3.20622l-0.30914,-3.11341h3.50653c1.952,0 3.45353,0.47517 4.52227,1.4326c1.05991,0.95743 1.59869,2.31201 1.59869,4.07793c0,1.90776 -0.52995,3.38291 -1.59869,4.43963c-1.06874,1.05672 -2.57028,1.58153 -4.52227,1.58153h-3.25922zM271.39536,174.39731l-3.4182,-8.56011h3.55069l3.89516,8.56011h-4.01882z"/><path d="M276.61541,174.39731v-18.19113h3.37404v18.19113zM276.61541,159.31959v-3.11341h12.43626v3.11341zM276.61541,166.85136v-3.1276h10.13979v3.1276zM276.61541,174.39731v-3.11341h12.43626v3.11341z"/><path d="M295.99406,174.65262c-1.03341,0 -2.03149,-0.0851 -3.00307,-0.26241c-0.97158,-0.1773 -1.83717,-0.41843 -2.60561,-0.73757l0.45929,-3.46092c0.93625,0.39006 1.86367,0.69502 2.79109,0.90778c0.91859,0.21276 1.77535,0.31914 2.56144,0.31914c0.90975,0 1.60753,-0.16312 2.09332,-0.48935c0.48579,-0.32623 0.72427,-0.78722 0.72427,-1.39714c0,-0.79431 -0.49462,-1.4255 -1.4927,-1.89358l-2.60561,-1.26948c-1.28955,-0.63119 -2.2788,-1.41132 -2.98541,-2.34747c-0.70661,-0.92906 -1.05991,-1.95741 -1.05991,-3.08505c0,-1.58862 0.52112,-2.81555 1.5722,-3.68787c1.05108,-0.87232 2.52611,-1.30494 4.44278,-1.30494c1.1129,0 2.17281,0.19858 3.17089,0.58864c0.99808,0.39006 1.89017,0.95743 2.6586,1.70209l-2.32297,2.6808c-0.59178,-0.56027 -1.17473,-0.99998 -1.77535,-1.29785c-0.59178,-0.30496 -1.1659,-0.45389 -1.72235,-0.45389c-0.75077,0 -1.33372,0.16312 -1.74885,0.48226c-0.41513,0.31914 -0.62711,0.78722 -0.62711,1.39004c0,0.40425 0.15015,0.78013 0.44163,1.14182c0.29147,0.36169 0.71544,0.68084 1.25422,0.97161l2.45545,1.26948c1.28072,0.66665 2.26114,1.44678 2.95891,2.33329c0.69777,0.88651 1.04224,1.84394 1.04224,2.8581c0,1.61699 -0.58295,2.8581 -1.74002,3.73751c-1.15707,0.87232 -2.79992,1.31203 -4.93741,1.31203z"/></g></g></g></svg>