<svg version="1.1" xmlns="http://www.w3.org/2000/svg" xmlns:xlink="http://www.w3.org/1999/xlink" width="149.5" height="86.91661" viewBox="0,0,149.5,86.91661"><defs><linearGradient x1="240" y1="124.66676" x2="240" y2="209.22998" gradientUnits="userSpaceOnUse" id="color-1"><stop offset="0" stop-color="#444459" stop-opacity="0"/><stop offset="1" stop-color="#444459"/></linearGradient></defs><g transform="translate(-165.25,-124.66675)"><g data-paper-data="{&quot;isPaintingLayer&quot;:true}" fill-rule="nonzero" stroke-linecap="butt" stroke-linejoin="miter" stroke-miterlimit="10" stroke-dasharray="" stroke-dashoffset="0" style="mix-blend-mode: normal"><path d="M171.5,209.22998v-84.56322h137v84.56323z" fill="url(#color-1)" stroke="none" stroke-width="0"/><path d="M171.5,205.33337v-41.00001h137v41.00001z" fill="#1ade00" stroke="#ffffff" stroke-width="12.5"/><path d="M171.5,205.33337v-60.66667h137v60.66667z" fill="#ddde00" stroke="none" stroke-width="0"/><path d="M171.5,195.33337v-60.66667h137v60.66667z" fill="#fcff00" stroke="none" stroke-width="0"/><text transform="translate(259.78336,174.40178) scale(0.78778,0.66541)" font-size="40" xml:space="preserve" fill="#000000" fill-rule="nonzero" stroke="none" stroke-width="1" stroke-linecap="butt" stroke-linejoin="miter" stroke-miterlimit="10" stroke-dasharray="" stroke-dashoffset="0" font-family="Serif" font-weight="normal" text-anchor="start" style="mix-blend-mode: normal"><tspan x="0" dy="0">😴</tspan></text><g fill="#231f20" stroke="none" stroke-width="0"><path d="M183.12201,177.24109c-1.13715,0 -2.23543,-0.09851 -3.30454,-0.30375c-1.06912,-0.20524 -2.0216,-0.48436 -2.86718,-0.85379l0.5054,-4.00623c1.03024,0.45152 2.05076,0.80453 3.07128,1.05081c1.02052,0.24628 1.95356,0.36943 2.81858,0.36943c1.00108,0 1.7689,-0.18882 2.30346,-0.56645c0.53456,-0.37764 0.79698,-0.91125 0.79698,-1.61727c0,-0.91946 -0.54427,-1.65011 -1.64255,-2.19194l-2.86718,-1.4695c-1.41901,-0.73065 -2.50756,-1.63369 -3.2851,-2.71734c-0.77754,-1.07544 -1.16631,-2.26582 -1.16631,-3.57113c0,-1.83893 0.57344,-3.25917 1.73003,-4.26894c1.15659,-1.00977 2.77971,-1.51055 4.88878,-1.51055c1.22463,0 2.39093,0.22987 3.48921,0.68139c1.09828,0.45152 2.07992,1.10828 2.9255,1.97028l-2.55616,3.10319c-0.65119,-0.64855 -1.29265,-1.15754 -1.95356,-1.50234c-0.65119,-0.35301 -1.28295,-0.52541 -1.89526,-0.52541c-0.82613,0 -1.4676,0.18882 -1.92441,0.55824c-0.45681,0.36943 -0.69007,0.91126 -0.69007,1.60906c0,0.46794 0.16522,0.90304 0.48596,1.32173c0.32074,0.41868 0.78726,0.78811 1.38013,1.1247l2.70195,1.4695c1.40929,0.77169 2.48812,1.67474 3.25594,2.70092c0.76782,1.02619 1.14687,2.13447 1.14687,3.30843c0,1.87177 -0.64147,3.30843 -1.91469,4.3264c-1.27322,1.00977 -3.081,1.51876 -5.43305,1.51876z"/><path d="M192.97732,176.94555v-21.05736h3.71275v21.05736zM192.97732,176.94555v-3.60397h13.6847v3.60397z"/><path d="M208.57671,176.94555v-21.05736h3.71275v21.05736zM208.57671,159.49216v-3.60397h13.6847v3.60397zM208.57671,168.21064v-3.62039h11.15769v3.62039zM208.57671,176.94555v-3.60397h13.6847v3.60397z"/><path d="M224.16637,176.94555v-21.05736h3.71275v21.05736zM224.16637,159.49216v-3.60397h13.6847v3.60397zM224.16637,168.21064v-3.62039h11.15769v3.62039zM224.16637,176.94555v-3.60397h13.6847v3.60397z"/><path d="M239.75604,176.94555v-21.05736h3.71276v21.05736zM243.12862,170.91157v-3.60397h2.74083c1.22463,0 2.17711,-0.35301 2.84774,-1.06723c0.67063,-0.71423 1.00108,-1.70757 1.00108,-2.98005c0,-1.2068 -0.33045,-2.13447 -1.00108,-2.79123c-0.67063,-0.65676 -1.6134,-0.97693 -2.84774,-0.97693h-2.68251v-3.60397h2.68251c2.49785,0 4.43197,0.62392 5.80239,1.86355c1.37042,1.23963 2.05076,2.99647 2.05076,5.25408c0,2.51211 -0.68034,4.45775 -2.05076,5.83695c-1.37042,1.3792 -3.30454,2.06879 -5.80239,2.06879z"/></g></g></g></svg>