<svg version="1.1" xmlns="http://www.w3.org/2000/svg" xmlns:xlink="http://www.w3.org/1999/xlink" width="149.5" height="76.91667" viewBox="0,0,149.5,76.91667"><g transform="translate(-165.25,-134.66669)"><g data-paper-data="{&quot;isPaintingLayer&quot;:true}" fill-rule="nonzero" stroke-linecap="butt" stroke-linejoin="miter" stroke-miterlimit="10" stroke-dasharray="" stroke-dashoffset="0" style="mix-blend-mode: normal"><path d="M171.5,205.33336v-41.00001h137v41.00001z" fill="#1ade00" stroke="#ffffff" stroke-width="12.5"/><path d="M171.5,205.33336v-60.66667h137v60.66667z" fill="#1ade00" stroke="none" stroke-width="0"/><path d="M171.5,195.33336v-60.66667h137v60.66667z" fill="#1dff00" stroke="none" stroke-width="0"/><g fill="#231f20" stroke="none" stroke-width="0"><path d="M176.2,175.63403v-18.33699h3.67v18.33699zM184.02,175.63403l-3.61,-14.3336h-1.58v-4.0034h3.11l3.61,14.3336h0.97v4.0034zM186.08,175.63403v-18.33699h3.67v18.33699z"/><path d="M199.02,175.89139c-5.21,0 -7.82,-3.10263 -7.82,-9.30075c0,-6.19812 2.61,-9.55811 7.82,-9.55811c5.21,0 7.82,3.18842 7.82,9.55811c0,6.36969 -2.61,9.30075 -7.82,9.30075zM199.02,172.63863c2.54,0 3.82,-2.016 3.82,-6.04799c0,-4.03199 -1.27,-6.30535 -3.82,-6.30535c-2.55,0 -3.82,2.10178 -3.82,6.30535c0,4.20357 1.27,6.04799 3.82,6.04799z"/><path d="M224.03,175.63403v-18.33699h3.56v18.33699zM229.77,169.21429l-1.73,-8.6645h-0.91l0.23,-3.25276h2.12l1.5,8.19982h0.12l0.4,3.71744zM230.61,169.21429l0.43,-3.71744h0.17l1.5,-8.19982h2.12l0.23,3.25276h-0.91l-1.73,8.6645h-1.82zM234.61,175.63403v-18.33699h3.56v18.33699z"/><path d="M247.14,175.89139c-5.21,0 -7.82,-3.10263 -7.82,-9.30075c0,-6.19812 2.61,-9.55811 7.82,-9.55811c5.21,0 7.82,3.18842 7.82,9.55811c0,6.36969 -2.61,9.30075 -7.82,9.30075zM247.14,172.63863c2.54,0 3.82,-2.016 3.82,-6.04799c0,-4.03199 -1.27,-6.30535 -3.82,-6.30535c-2.55,0 -3.82,2.10178 -3.82,6.30535c0,4.20357 1.27,6.04799 3.82,6.04799z"/><path d="M256.4,175.63403v-18.33699h3.67v18.33699zM264.22,175.63403l-3.61,-14.3336h-1.58v-4.0034h3.11l3.61,14.3336h0.97v4.0034zM266.29,175.63403v-18.33699h3.67v18.33699z"/><path d="M272.62,175.63403v-18.33699h3.82v18.33699zM272.62,160.43541v-3.13838h14.08v3.13838zM272.62,168.02757v-3.15268h11.48v3.15268zM272.62,175.63403v-3.13838h14.08v3.13838z"/><path d="M293.57,170.15795l-6.87,-12.86092h4.26l4.16,8.52152h0.26l4.16,-8.52152h4.26l-6.87,12.86092h-3.38zM293.36,175.63403v-9.04339h3.82v9.04339z"/></g></g></g></svg>