<svg version="1.1" xmlns="http://www.w3.org/2000/svg" xmlns:xlink="http://www.w3.org/1999/xlink" width="149.5" height="86.91661" viewBox="0,0,149.5,86.91661"><defs><linearGradient x1="240" y1="124.66676" x2="240" y2="209.22998" gradientUnits="userSpaceOnUse" id="color-1"><stop offset="0" stop-color="#444459" stop-opacity="0"/><stop offset="1" stop-color="#444459"/></linearGradient></defs><g transform="translate(-165.25,-124.66675)"><g data-paper-data="{&quot;isPaintingLayer&quot;:true}" fill-rule="nonzero" stroke-linecap="butt" stroke-linejoin="miter" stroke-miterlimit="10" stroke-dasharray="" stroke-dashoffset="0" style="mix-blend-mode: normal"><path d="M171.5,209.22998v-84.56322h137v84.56323z" fill="url(#color-1)" stroke="none" stroke-width="0"/><path d="M171.5,205.33337v-41.00001h137v41.00001z" fill="#1ade00" stroke="#ffffff" stroke-width="12.5"/><path d="M171.5,205.33337v-60.66667h137v60.66667z" fill="#17c900" stroke="none" stroke-width="0"/><path d="M171.5,200.33337v-60.66667h137v60.66667z" fill="#1be400" stroke="none" stroke-width="0"/><text transform="translate(251.5024,177.50908) scale(0.78778,0.49947)" font-size="40" xml:space="preserve" fill="#000000" fill-rule="nonzero" stroke="none" stroke-width="1" stroke-linecap="butt" stroke-linejoin="miter" stroke-miterlimit="10" stroke-dasharray="" stroke-dashoffset="0" font-family="Serif" font-weight="normal" text-anchor="start" style="mix-blend-mode: normal"><tspan x="0" dy="0">📈</tspan></text><g fill="#231f20" stroke="none" stroke-width="0"><path d="M187.50384,181.4317v-19.83521h4.65918v19.83521zM190.7116,171.68036v-1.36874h6.93998v1.36874zM191.91908,170.7292v-1.48474h3.40291c1.09771,0 1.9149,-0.18559 2.47595,-0.56452c0.56105,-0.37891 0.84158,-0.93569 0.84158,-1.67033c0,-0.67277 -0.29272,-1.17541 -0.89037,-1.51567c-0.59764,-0.34026 -1.48801,-0.51038 -2.6711,-0.51038h-3.08579l-0.42689,-3.3948h3.68343c2.63451,0 4.67137,0.42531 6.11059,1.27595c1.43922,0.85064 2.15883,2.06472 2.15883,3.64226c0,1.35328 -0.56105,2.3895 -1.67096,3.12414c-1.12211,0.73464 -2.69549,1.09808 -4.74455,1.09808zM191.91908,181.4317v-3.3948h4.46403c1.26847,0 2.25641,-0.23972 2.96382,-0.71144c0.70741,-0.47172 1.06112,-1.14449 1.06112,-1.99512c0,-0.85064 -0.3659,-1.50021 -1.10991,-1.97192c-0.744,-0.46398 -1.79293,-0.69597 -3.15897,-0.69597h-4.14691l-0.42689,-1.48474h6.91558c2.17103,0 3.85419,0.41759 5.03728,1.26048c1.18309,0.8429 1.76854,2.01832 1.76854,3.54946c0,1.7322 -0.68302,3.07002 -2.04906,4.02117c-1.36604,0.95116 -3.30533,1.42288 -5.83007,1.42288h-5.47636z"/><path d="M215.0564,181.7101c-5.56174,0 -8.34261,-2.21938 -8.34261,-6.6504v-13.47094h4.65918v13.47094c0,1.03622 0.30492,1.80953 0.90256,2.33537c0.60984,0.51811 1.54899,0.78104 2.84185,0.78104c2.50034,0 3.75661,-1.03622 3.75661,-3.11641v-13.47094h4.65918v13.47094c0,2.21938 -0.71961,3.88198 -2.15883,4.9878c-1.43922,1.10582 -3.54927,1.6626 -6.31794,1.6626z"/><path d="M232.63198,175.50821l-8.3792,-13.91172h5.19583l5.07387,9.21777h0.31712l5.07387,-9.21777h5.19583l-8.3792,13.91172h-4.12252zM232.36365,181.4317v-9.78229h4.65918v9.78229z"/></g></g></g></svg>