<svg version="1.1" xmlns="http://www.w3.org/2000/svg" xmlns:xlink="http://www.w3.org/1999/xlink" width="149.5" height="86.91667" viewBox="0,0,149.5,86.91667"><g transform="translate(-165.25,-124.66669)"><g data-paper-data="{&quot;isPaintingLayer&quot;:true}" fill-rule="nonzero" stroke-linecap="butt" stroke-linejoin="miter" stroke-miterlimit="10" stroke-dasharray="" stroke-dashoffset="0" style="mix-blend-mode: normal"><path d="M171.5,205.33336v-41.00001h137v41.00001z" fill="#1ade00" stroke="#ffffff" stroke-width="12.5"/><path d="M171.5,205.33336v-60.66667h137v60.66667z" fill="#dbde00" stroke="none" stroke-width="0"/><path d="M171.5,185.33336v-60.66667h137v60.66667z" fill="#feff00" stroke="none" stroke-width="0"/><text transform="translate(259.78336,161.91998) scale(0.78778,0.78778)" font-size="40" xml:space="preserve" fill="#000000" fill-rule="nonzero" stroke="none" stroke-width="1" stroke-linecap="butt" stroke-linejoin="miter" stroke-miterlimit="10" stroke-dasharray="" stroke-dashoffset="0" font-family="Serif" font-weight="normal" text-anchor="start" style="mix-blend-mode: normal"><tspan x="0" dy="0">😴</tspan></text><g fill="#231f20" stroke="none" stroke-width="0"><path d="M183.122,165.28145c-1.13715,0 -2.23543,-0.11663 -3.30454,-0.35961c-1.06912,-0.24298 -2.0216,-0.57344 -2.86718,-1.0108l0.5054,-4.74299c1.03024,0.53456 2.05076,0.95249 3.07128,1.24406c1.02052,0.29158 1.95357,0.43737 2.81858,0.43737c1.00108,0 1.7689,-0.22354 2.30346,-0.67063c0.53456,-0.44709 0.79698,-1.07884 0.79698,-1.91469c0,-1.08856 -0.54428,-1.95357 -1.64255,-2.59504l-2.86718,-1.73974c-1.41901,-0.86501 -2.50756,-1.93413 -3.2851,-3.21707c-0.77754,-1.27322 -1.16631,-2.68251 -1.16631,-4.22787c0,-2.17711 0.57344,-3.85854 1.73003,-5.05401c1.15659,-1.19547 2.7797,-1.78834 4.88878,-1.78834c1.22462,0 2.39093,0.27214 3.48921,0.8067c1.09827,0.53456 2.07992,1.3121 2.92549,2.33262l-2.55616,3.67387c-0.65119,-0.76782 -1.29266,-1.37041 -1.95357,-1.77862c-0.65119,-0.41793 -1.28294,-0.62203 -1.89525,-0.62203c-0.82614,0 -1.46761,0.22354 -1.92441,0.66091c-0.4568,0.43737 -0.69007,1.07884 -0.69007,1.90497c0,0.554 0.16523,1.06912 0.48596,1.5648c0.32074,0.49568 0.78726,0.93305 1.38013,1.33154l2.70195,1.73974c1.40929,0.91361 2.48813,1.98273 3.25595,3.19763c0.76782,1.21491 1.14687,2.527 1.14687,3.91686c0,2.21599 -0.64147,3.91686 -1.91469,5.12204c-1.27322,1.19547 -3.081,1.79806 -5.43306,1.79806z"/><path d="M192.97732,164.93155v-24.92986h3.71275v24.92986zM192.97732,164.93155v-4.26675h13.6847v4.26675z"/><path d="M208.5767,164.93155v-24.92986h3.71275v24.92986zM208.5767,144.26844v-4.26675h13.6847v4.26675zM208.5767,154.59028v-4.28619h11.15769v4.28619zM208.5767,164.93155v-4.26675h13.6847v4.26675z"/><path d="M224.16637,164.93155v-24.92986h3.71275v24.92986zM224.16637,144.26844v-4.26675h13.6847v4.26675zM224.16637,154.59028v-4.28619h11.15769v4.28619zM224.16637,164.93155v-4.26675h13.6847v4.26675z"/><path d="M239.75604,164.93155v-24.92986h3.71275v24.92986zM243.12861,157.78791v-4.26675h2.74083c1.22462,0 2.17711,-0.41793 2.84774,-1.2635c0.67063,-0.84557 1.00108,-2.0216 1.00108,-3.52809c0,-1.42873 -0.33045,-2.527 -1.00108,-3.30454c-0.67063,-0.77754 -1.61339,-1.15659 -2.84774,-1.15659h-2.68251v-4.26675h2.68251c2.49785,0 4.43198,0.73866 5.80239,2.20627c1.37041,1.46761 2.05076,3.54752 2.05076,6.22032c0,2.97409 -0.68035,5.27755 -2.05076,6.91038c-1.37041,1.63283 -3.30454,2.44925 -5.80239,2.44925z"/></g></g></g></svg>