<svg version="1.1" xmlns="http://www.w3.org/2000/svg" xmlns:xlink="http://www.w3.org/1999/xlink" width="149.5" height="86.91667" viewBox="0,0,149.5,86.91667"><g transform="translate(-165.25,-124.66669)"><g data-paper-data="{&quot;isPaintingLayer&quot;:true}" fill-rule="nonzero" stroke-linecap="butt" stroke-linejoin="miter" stroke-miterlimit="10" stroke-dasharray="" stroke-dashoffset="0" style="mix-blend-mode: normal"><path d="M171.5,205.33336v-41.00001h137v41.00001z" fill="#1ade00" stroke="#ffffff" stroke-width="12.5"/><path d="M171.5,205.33336v-60.66667h137v60.66667z" fill="#1ade00" stroke="none" stroke-width="0"/><path d="M171.5,185.33336v-60.66667h137v60.66667z" fill="#1dff00" stroke="none" stroke-width="0"/><text transform="translate(251.5024,163.82061) scale(0.78778,0.78778)" font-size="40" xml:space="preserve" fill="#000000" fill-rule="nonzero" stroke="none" stroke-width="1" stroke-linecap="butt" stroke-linejoin="miter" stroke-miterlimit="10" stroke-dasharray="" stroke-dashoffset="0" font-family="Serif" font-weight="normal" text-anchor="start" style="mix-blend-mode: normal"><tspan x="0" dy="0">📈</tspan></text><g fill="#231f20" stroke="none" stroke-width="0"><path d="M187.50384,170.00752v-31.28478h4.65918v31.28478zM190.7116,154.62736v-2.15883h6.93998v2.15883zM191.91908,153.12716v-2.34178h3.40291c1.09771,0 1.9149,-0.29272 2.47595,-0.89037c0.56105,-0.59764 0.84158,-1.47581 0.84158,-2.63451c0,-1.06112 -0.29272,-1.85391 -0.89037,-2.39057c-0.59764,-0.53666 -1.48801,-0.80499 -2.6711,-0.80499h-3.08579l-0.42689,-5.35439h3.68343c2.63451,0 4.67137,0.67082 6.11059,2.01247c1.43922,1.34165 2.15883,3.25654 2.15883,5.74469c0,2.13444 -0.56105,3.76881 -1.67096,4.92751c-1.12211,1.1587 -2.69549,1.73194 -4.74455,1.73194zM191.91908,170.00752v-5.35439h4.46403c1.26847,0 2.25641,-0.3781 2.96382,-1.12211c0.70741,-0.744 1.06112,-1.80513 1.06112,-3.14677c0,-1.34165 -0.3659,-2.36618 -1.10991,-3.11018c-0.744,-0.73181 -1.79293,-1.09771 -3.15897,-1.09771h-4.14691l-0.42689,-2.34178h6.91558c2.17103,0 3.85419,0.65863 5.03728,1.98808c1.18309,1.32945 1.76854,3.18336 1.76854,5.59833c0,2.73208 -0.68302,4.84213 -2.04906,6.34233c-1.36604,1.50021 -3.30533,2.24421 -5.83007,2.24421h-5.47636z"/><path d="M215.0564,170.44661c-5.56174,0 -8.34261,-3.50048 -8.34261,-10.48924v-21.24682h4.65918v21.24682c0,1.63437 0.30492,2.85405 0.90256,3.68343c0.60984,0.81719 1.54899,1.23188 2.84185,1.23188c2.50034,0 3.75661,-1.63437 3.75661,-4.91531v-21.24682h4.65918v21.24682c0,3.50048 -0.71961,6.12279 -2.15883,7.86693c-1.43922,1.74414 -3.54927,2.62231 -6.31794,2.62231z"/><path d="M232.63198,160.66478l-8.3792,-21.94204h5.19583l5.07387,14.53858h0.31712l5.07387,-14.53858h5.19583l-8.3792,21.94204h-4.12252zM232.36365,170.00752v-15.42895h4.65918v15.42895z"/></g></g></g></svg>