<svg version="1.1" xmlns="http://www.w3.org/2000/svg" xmlns:xlink="http://www.w3.org/1999/xlink" width="149.5" height="86.91661" viewBox="0,0,149.5,86.91661"><defs><linearGradient x1="240" y1="124.66676" x2="240" y2="209.22998" gradientUnits="userSpaceOnUse" id="color-1"><stop offset="0" stop-color="#444459" stop-opacity="0"/><stop offset="1" stop-color="#444459"/></linearGradient></defs><g transform="translate(-165.25,-124.66675)"><g data-paper-data="{&quot;isPaintingLayer&quot;:true}" fill-rule="nonzero" stroke-linecap="butt" stroke-linejoin="miter" stroke-miterlimit="10" stroke-dasharray="" stroke-dashoffset="0" style="mix-blend-mode: normal"><path d="M171.5,209.22998v-84.56322h137v84.56323z" fill="url(#color-1)" stroke="none" stroke-width="0"/><path d="M171.5,205.33337v-41.00001h137v41.00001z" fill="#1ade00" stroke="#ffffff" stroke-width="12.5"/><path d="M171.5,205.33337v-60.66667h137v60.66667z" fill="#de0000" stroke="none" stroke-width="0"/><path d="M171.5,195.33337v-60.66667h137v60.66667z" fill="#ff0000" stroke="none" stroke-width="0"/><text transform="translate(256.33907,173.26433) scale(0.78778,0.60599)" font-size="40" xml:space="preserve" fill="#000000" fill-rule="nonzero" stroke="none" stroke-width="1" stroke-linecap="butt" stroke-linejoin="miter" stroke-miterlimit="10" stroke-dasharray="" stroke-dashoffset="0" font-family="Serif" font-weight="normal" text-anchor="start" style="mix-blend-mode: normal"><tspan x="0" dy="0">📉</tspan></text><g fill="#231f20" stroke="none" stroke-width="0"><path d="M188.28066,176.64645c-1.45302,0 -2.85638,-0.11464 -4.22247,-0.35347c-1.36609,-0.23883 -2.58316,-0.56364 -3.66361,-0.99353l0.64579,-4.66193c1.31642,0.52542 2.62042,0.93621 3.92441,1.2228c1.30399,0.28659 2.49622,0.42989 3.60152,0.42989c1.27916,0 2.26027,-0.21972 2.94331,-0.65916c0.68304,-0.43944 1.01836,-1.0604 1.01836,-1.88197c0,-1.06995 -0.69547,-1.92018 -2.09882,-2.55069l-3.66361,-1.71001c-1.81318,-0.85023 -3.20411,-1.90107 -4.19763,-3.16209c-0.99352,-1.25146 -1.49028,-2.63667 -1.49028,-4.15562c0,-2.1399 0.73272,-3.7926 2.21058,-4.96763c1.47787,-1.17504 3.55184,-1.75778 6.24677,-1.75778c1.5648,0 3.05508,0.26749 4.45843,0.79291c1.40335,0.52542 2.65767,1.28968 3.73812,2.29275l-3.2662,3.61109c-0.83208,-0.7547 -1.65172,-1.34699 -2.49622,-1.74822c-0.83208,-0.41079 -1.63931,-0.6114 -2.42171,-0.6114c-1.05561,0 -1.87527,0.21972 -2.45897,0.64961c-0.5837,0.42989 -0.88175,1.0604 -0.88175,1.87241c0,0.54453 0.21112,1.05085 0.62095,1.53806c0.40983,0.48721 1.00594,0.9171 1.7635,1.30878l3.45248,1.71001c1.80076,0.898 3.17927,1.94884 4.16038,3.14298c0.98111,1.19414 1.46544,2.48382 1.46544,3.84991c0,2.17811 -0.81966,3.84991 -2.44655,5.03451c-1.62689,1.17504 -3.93682,1.76733 -6.94223,1.76733z"/><path d="M200.87354,176.30253v-24.5038h4.74407v24.5038zM200.87354,155.99256v-4.19383h17.48598v4.19383zM200.87354,166.138v-4.21294h14.25704v4.21294zM200.87354,176.30253v-4.19383h17.48598v4.19383z"/><path d="M220.80607,176.30253v-24.5038h4.74407v24.5038zM220.80607,176.30253v-4.19383h17.48598v4.19383z"/><path d="M240.72618,176.30253v-24.5038h4.74406v24.5038zM240.72618,176.30253v-4.19383h17.48598v4.19383z"/></g></g></g></svg>