<svg version="1.1" xmlns="http://www.w3.org/2000/svg" xmlns:xlink="http://www.w3.org/1999/xlink" width="369.11237" height="228.22238" viewBox="0,0,369.11237,228.22238"><g transform="translate(-69.88763,-60.27452)"><g data-paper-data="{&quot;isPaintingLayer&quot;:true}" fill-rule="nonzero" stroke="none" stroke-width="0.5" stroke-linecap="butt" stroke-linejoin="miter" stroke-miterlimit="10" stroke-dasharray="" stroke-dashoffset="0" style="mix-blend-mode: normal"><path d="M382.86432,85.26551c1.96352,-3.0397 3.80049,-6.10643 6.21432,-8.83473c1.44576,-1.63412 3.3336,-2.86271 4.66635,-4.59023c4.76171,-6.17219 5.1508,-13.93095 16.51357,-10.88048c3.23001,0.86714 4.9024,4.60629 6.87712,7.30543c0.84459,1.15442 0.96213,2.6942 1.42813,4.04655c1.24491,3.61279 1.84696,7.3321 2.97611,10.92938c1.78727,5.69393 6.11409,10.25103 9.22409,15.34447c0.91295,1.49519 2.1707,2.84293 2.6991,4.51133l3.63198,4.53998c1.19093,1.46282 1.90491,3.32942 1.90491,5.36278c0,4.69442 -3.80558,8.5 -8.5,8.5c-1.64961,0 -3.18947,-0.46992 -4.49301,-1.28319l-4.29127,-2.57476c-1.85642,-0.64863 -3.65741,-1.45372 -5.43248,-2.33466c-0.46105,0.34413 -0.88299,0.7136 -1.23068,1.12838c-3.77303,4.50098 -9.40355,15.39859 -11.86629,19.83153c-7.04542,12.68175 -14.05332,24.48417 -22.99631,35.97623c-8.34726,10.72652 -17.9713,20.80889 -27.25531,30.73409c-0.51171,0.54705 -23.19669,24.80169 -23.53198,25.13864c-9.7112,9.7594 -21.05869,18.35578 -31.43638,27.39295c-11.44734,9.26947 -22.52648,19.08631 -35.1356,26.80484c-3.9621,2.42536 -11.38459,6.3093 -16.6569,6.17971c-14.2993,-0.35148 -16.88604,-17.00534 -21.42784,-27.01166c-1.40766,-3.10129 -3.17148,-6.04005 -4.68075,-9.09183c-3.06889,1.78114 -6.29721,3.29396 -9.40034,5.01947c-6.29738,3.50168 -14.58248,8.99952 -19.9735,11.46843c-2.85847,1.30908 -6.08654,1.57871 -9.12981,2.36806c0,0 -8.24621,2.06155 -10.30776,-6.18466c-2.06155,-8.24621 6.18466,-10.30776 6.18466,-10.30776c2.29006,-0.54398 4.73938,-0.63196 6.87019,-1.63194c4.77224,-2.23958 9.09306,-5.33634 13.6448,-7.99559c4.91799,-2.87322 9.99592,-5.46447 14.9495,-8.27588c2.34264,-1.32957 4.22376,-4.05772 6.91452,-4.18219c12.87057,-0.5954 10.93067,2.4916 14.65456,10.38277c1.8269,3.87133 4.00849,7.57089 5.78202,11.46697c1.53618,3.37467 2.76095,6.88259 4.13801,10.32526c0.62294,1.55734 1.26655,3.10669 1.86199,4.67474c0.21167,0.55743 0.9475,1.0312 1.01129,1.56839c1.90849,-1.64663 4.73986,-2.0423 6.90398,-3.40035c4.20418,-2.63826 8.27011,-5.50103 12.23388,-8.48835c7.06674,-5.3259 13.75194,-11.14002 20.63052,-16.70681c10.07462,-8.77612 21.15143,-17.11945 30.56362,-26.60705c7.87994,-7.94307 15.27873,-16.34943 22.92271,-24.51982c8.94861,-9.56487 18.24695,-19.26743 26.29001,-29.60745c8.41025,-10.81207 14.88955,-21.81832 21.51555,-33.74512c2.9536,-5.31649 7.21789,-13.66343 11.66321,-19.76399c-1.10359,-0.53572 -2.21385,-1.05799 -3.32901,-1.56983c-1.45189,-0.44791 -2.8529,-0.99387 -3.62356,-1.62375c-0.82405,-0.36146 -1.64972,-0.71907 -2.47632,-1.07403l-2.56191,-0.85397c-3.12128,-0.95993 -5.4765,-3.66887 -5.92185,-6.98301c-0.68546,-1.22571 -1.07616,-2.63862 -1.07616,-4.14278c0,-1.00949 0.17598,-1.97788 0.49893,-2.87616l0.93726,-2.81177l0.48744,0.16248z" fill="#07ff00"/><path d="M128.56381,109.31207c2.68794,8.06381 -5.37587,10.75175 -5.37587,10.75175l-3.31144,1.09721c-5.47902,1.37795 -11.05257,1.85139 -16.49623,3.12841c-0.69186,0.1623 -1.37353,0.35979 -2.0491,0.57842c-0.04872,4.40578 -0.33116,8.86226 -0.33116,13.13215v1c0,0 0,8.5 -8.5,8.5c-8.5,0 -8.5,-8.5 -8.5,-8.5v-1c0,-2.58377 0.10299,-5.22268 0.19103,-7.87025c-1.00586,0.29201 -2.00771,0.59982 -3.0031,0.93406c0,0 -8.06381,2.68794 -10.75174,-5.37587c-2.68793,-8.06381 5.37588,-10.75174 5.37588,-10.75174c2.17588,-0.72096 4.3759,-1.33179 6.58084,-1.92651c-0.35307,-0.8453 -0.65745,-1.53782 -0.78495,-1.85286c0,0 -3.15682,-7.89205 4.73523,-11.04887c7.89205,-3.15682 11.04887,4.73523 11.04887,4.73523c0.43315,1.09324 0.86138,2.11507 1.26476,3.11243c0.31947,-0.08694 0.64036,-0.16893 0.96293,-0.24503c5.12009,-1.20796 10.35682,-1.59387 15.50377,-2.87159l2.68856,-0.90279c0,0 8.06381,-2.68793 10.75174,5.37588z" fill="#ffffff"/><path d="M156.96168,114.88265c0.91802,-1.34929 1.8297,-2.40673 2.64191,-2.83068c3.92618,-2.04931 8.84586,-2.95163 13.14922,-1.90494c2.90745,0.70717 4.38431,4.13436 6.09892,6.5866c3.84409,5.49779 4.68672,14.14674 0.72948,19.96813c-2.89216,4.25457 -11.64828,8.40175 -15.8284,10.15122c-5.81411,2.43332 -11.09531,3.95353 -17.50562,2c-1.94998,-0.59426 -3.31615,-2.40111 -4.7576,-3.84256c-1.44145,-1.44145 -3.17759,-2.83058 -3.84256,-4.7576c-0.90011,-2.60844 -0.59025,-5.49402 -0.64703,-8.25281c-0.03755,-1.82472 -0.26145,-3.74884 0.36472,-5.46317c1.9364,-5.30143 6.32046,-9.39862 11.44734,-11.60064c1.74721,-0.75043 3.79196,-0.2908 5.68794,-0.43619c0,0 1.07566,0 2.46168,0.38265z" fill="#ffffff"/><path d="M377.81207,224.06381c-8.06381,-2.68794 -5.37588,-10.75174 -5.37588,-10.75174l0.67356,-1.67361c-0.02873,-7.12047 2.68446,-13.37918 4.05531,-20.30544c0,0 0.54841,-2.74209 2.58892,-4.76612c-5.50746,-0.05516 -11.90283,-0.64747 -15.41343,-3.81189c-2.1857,-1.97017 -3.31723,-4.86123 -4.97584,-7.29184c-0.08041,-1.42497 -0.19075,-2.89689 -0.29456,-4.3948c-3.59736,-0.79081 -7.1649,-1.82737 -10.90529,-2.89541c0,0 -3.0507,-0.87163 -4.89189,-3.41368c-0.15677,0.70236 -0.32364,1.43112 -0.50037,2.19362c-0.62905,2.71406 -1.35093,5.40577 -2.0264,8.10865l0.25379,-0.06155c0,0 0,8.5 -8.5,8.5c-8.5,0 -8.5,-8.5 -8.5,-8.5l0.25379,-4.06155c0.76346,-3.05265 3.25153,-12.77443 3.79697,-15.86594c0.29097,-1.64917 -0.11251,-3.66121 -0.27764,-5.58274c-2.14439,1.26082 -4.25171,2.60895 -6.05518,4.30569c-2.56169,2.41009 -3.30651,6.41926 -5.96642,8.7081l-1.56653,3.13305c-1.36293,2.87509 -4.29176,4.86339 -7.68498,4.86339c-4.69442,0 -8.5,-3.80558 -8.5,-8.5v-3h0.54456c0.06601,-0.17494 0.13761,-0.34713 0.21461,-0.51636l-0.58557,-1.1927c3.69121,-9.07854 8.27161,-18.31199 11.11638,-27.85766c-2.48217,3.06672 -6.78996,3.06672 -6.78996,3.06672h-2c-7.86018,0 -15.66238,0.45332 -23.46841,0.94366c0.0888,2.52084 0.28612,5.06341 -0.25898,7.50924c-1.42563,6.3967 -6.29203,10.17542 -10.8039,14.27763l-4.78078,1.83328c0,0 -8.06381,2.68794 -10.75174,-5.37587c-2.68794,-8.06381 5.37587,-10.75174 5.37587,-10.75174l1.21922,-0.16672c0.76038,-1.29389 3.09315,-2.21158 3.1961,-3.72237c0.05811,-0.85279 0.09436,-1.73891 0.1123,-2.65044c-0.86273,0.03655 -1.72604,0.06995 -2.59001,0.09967c-3.88009,0.13348 -7.77012,-0.22195 -11.64712,-0.01772c-4.20879,0.22171 -8.38796,1.0053 -12.60255,1.02139c0,0 -8.5,0 -8.5,-8.5c0,-8.5 8.5,-8.5 8.5,-8.5c3.81308,0.01855 7.58958,-0.77837 11.39745,-0.97862c4.11195,-0.21623 8.2377,0.12432 12.35288,-0.01771c0.74728,-0.0258 1.49408,-0.05427 2.24045,-0.08508c-0.20276,-2.55195 -0.38732,-4.94939 -0.48201,-7.03263c0,0 -0.38596,-8.49124 8.10527,-8.8772c8.49124,-0.38596 8.8772,8.10527 8.8772,8.10527c0.10388,2.2855 0.23919,4.57028 0.37673,6.85501c8.02673,-0.50077 16.04897,-0.96905 24.13203,-0.96905h2c0,0 7.69129,0 8.44135,7.31626c0.08513,-0.43202 0.16562,-0.86472 0.24124,-1.29813c1.76848,-10.13582 0.56964,-18.86265 -0.16099,-28.91253c0,0 -0.6056,-8.4784 7.8728,-9.084c8.4784,-0.6056 9.084,7.8728 9.084,7.8728c0.84211,11.98724 2.07947,20.76335 -0.04697,33.03512c-0.40481,2.33619 -0.92816,4.66078 -1.54622,6.97124c1.28778,-0.41376 2.54972,-0.69206 3.75324,-0.791c3.06514,-0.25199 6.72665,-0.57119 9.1269,1.35168c3.07768,2.46555 4.38653,6.67301 5.58128,10.43115c0.76842,2.41711 0.1167,5.07136 0.15337,7.60742c0.01686,1.16594 0.00344,2.25558 -0.03934,3.29915c3.28334,-2.78385 7.87447,-1.4721 7.87447,-1.4721c0.86268,0.24663 4.18137,1.21257 7.36463,2.10265c0.15905,-0.46238 0.33423,-0.91877 0.52687,-1.3684c4.7144,-11.00371 22.49908,-17.76112 30.17007,-5.74923c4.09517,6.41255 2.98103,16.94357 -3.04106,21.78848c-0.40353,0.32466 -0.82624,0.62355 -1.26454,0.89963c6.19605,0.017 11.13765,1.13186 16.19396,-2.5726l-0.29546,0.06202c0,0 6.01041,-6.01041 12.02082,0c6.01041,6.01041 0,12.02082 0,12.02082l-2.29546,2.06202c-7.15329,4.55802 -13.29332,5.28274 -20.9921,5.40254c3.64866,3.00914 2.61208,8.19202 2.61208,8.19202c-1.36178,6.74891 -3.91811,12.76422 -3.94469,19.69456l-1.32644,4.32639c0,0 -2.68793,8.06381 -10.75174,5.37587z" fill="#ffffff"/><path d="M185.48959,206.01041c-4.45246,-4.45246 -2.30822,-8.90493 -0.89746,-10.914c1.16332,-5.59972 2.83821,-10.83193 3.4243,-16.62458c0.1678,-1.65841 1.36911,-4.09074 -0.02757,-5.00057c-0.30816,-0.20074 -0.7285,-0.12535 -1.09627,-0.12463c-4.42118,0.00867 -10.3942,0.10021 -14.69509,0.98215c-9.47805,1.94358 -18.04823,7.79998 -26.15599,12.85626c-2.26848,1.4147 -4.06763,3.60531 -6.51862,4.6728l-3.8542,2.89065c-1.43221,1.09858 -3.2242,1.75152 -5.16869,1.75152c-4.69442,0 -8.5,-3.80558 -8.5,-8.5v-3c0,-0.14113 -0.02674,-1.4142 -0.00519,-2.72729c-0.19261,0.06721 -0.37707,0.15051 -0.5499,0.25642c-3.48927,2.13821 -7.02777,4.37584 -9.82152,7.36614c-3.20141,3.42664 -3.77702,9.4376 -7.91925,11.6298l-0.91609,1.60316c-0.31663,1.12605 -0.64358,2.24862 -1.05751,3.3405l-1.02597,0.3056l-0.52009,0.91016l0.32594,0.32594l-2,2c-1.5382,1.5382 -3.6632,2.48959 -6.01041,2.48959c-4.69442,0 -8.5,-3.80558 -8.5,-8.5c0,-1.58834 0.43565,-3.07493 1.194,-4.34679l2.22959,-3.90178c0.14475,-1.20627 0.42427,-2.274 1.30304,-4.19014c0.17757,-0.38719 0.75406,-0.45827 1.11883,-0.68939c0.06763,-0.1744 0.13832,-0.34875 0.21225,-0.5233c-0.17438,-0.13103 -0.59394,-0.16945 -0.80392,-0.28705c0,0 -2.06155,-8.24621 6.18466,-10.30776c0.97545,-0.24386 1.86437,-0.34349 2.67357,-0.3296c0.4039,-0.42695 0.82516,-0.86641 1.2646,-1.31946c5.48023,-5.64997 13.49728,-11.67133 21.74689,-13.26576c3.15958,-0.61066 6.82522,-2.27085 9.62931,-0.69195c3.11911,1.75628 5.1865,4.99672 6.84355,8.29583c4.08618,-2.37196 8.2575,-4.57574 8.65246,-4.80339c3.63178,-2.09345 6.98262,-4.72012 10.81677,-6.41474c6.88855,-3.04459 14.50075,-4.35514 21.96436,-4.71173c3.68858,-0.17622 7.45708,-0.58724 11.07747,0.14037c3.1734,0.63778 6.49385,1.71442 8.90373,3.87537c11.90132,10.67198 3.93156,27.14158 1.87321,39.86865l-3.37394,5.61302c0,0 -6.01041,6.01041 -12.02082,0z" fill="#ffffff"/><path d="M226.64578,177.59379c0.61117,-0.87052 1.22646,-1.73816 1.84382,-2.6042c2.18241,-1.37496 4.03694,-3.53175 6.54725,-4.12487c3.15321,-0.74502 6.72888,-0.97269 9.71598,0.28231c8.17893,3.4363 10.41053,13.44038 9.13743,21.21452c-1.90067,11.60636 -15.22898,19.94745 -25.43734,22.91107c-5.14809,1.49455 -16.03349,-0.11242 -19.24159,-4.8994c-1.39811,-2.0862 0.15157,-13.97381 1.58413,-16.96343c1.03252,-2.15479 3.09391,-3.66331 4.36051,-5.68938c1.36888,-2.18965 1.48429,-5.30676 3.51279,-6.90476c2.77202,-2.18373 5.43105,-3.14459 7.97704,-3.22186z" fill="#ffffff"/><path d="M281.66092,203.35273c-6.66092,-1.12787 -6.66092,-8.35272 -6.66092,-8.35272l1.42757,-6.71495c1.23893,-1.62853 2.03453,-3.72067 3.71679,-4.88559c5.30001,-3.67012 14.21209,-6.11087 20.32567,-2.29502c2.71767,1.69626 2.94681,5.68934 4.42021,8.53401c0.09985,11.70292 -4.6762,26.39695 -18.02869,28.75179c-2.101,0.37053 -4.27829,0.26827 -6.40011,0.04607c-1.81944,-0.19054 -3.62205,-0.64094 -5.33793,-1.27529c-2.29613,-0.84886 -4.96944,-1.35553 -6.63392,-3.15061c-3.61942,-3.90342 -4.23377,-10.60412 -3.12487,-15.47358c0.36629,-1.60847 1.71939,-2.81784 2.4996,-4.27132c0.92904,-1.73075 1.12301,-4.0103 2.62527,-5.27593c2.13175,-1.79595 4.94641,-2.69677 7.64886,-3.37983c4.27416,-1.08032 7.3121,1.0587 11.36155,0.89024c0,0 8.5,0 8.5,8.5c0,8.5 -8.5,8.5 -8.5,8.5c-1.62039,-0.03317 -3.25325,0.09692 -4.86467,-0.05381c-0.3605,0.03529 -0.73866,0.05381 -1.13533,0.05381c-0.501,0 -0.97248,-0.02953 -1.41616,-0.08511c-0.10469,0.15408 -0.17946,0.24209 -0.1936,0.22356c-0.07411,-0.09708 -0.15088,-0.19207 -0.22933,-0.28573z" fill="#ffffff"/><path d="M347.43845,228.24621c-8.24621,-2.06155 -6.18466,-10.30776 -6.18466,-10.30776l0.8099,-2.977c-0.11982,-3.69053 -0.46155,-7.70165 -0.1585,-11.43815c-0.8216,0.10175 -1.66955,0.11283 -2.42462,0.437c-1.70688,0.7328 -3.40717,1.59008 -4.82112,2.79472c-2.94329,2.50758 -4.82733,6.27622 -8.14904,8.2554l-7,6.99999v0.00001c-1.53819,1.5382 -3.6632,2.48959 -6.01041,2.48959c-4.69442,0 -8.5,-3.80558 -8.5,-8.5c0,-1.7861 0.55089,-3.44353 1.49203,-4.81165l1.93554,-2.9033l0.44608,0.29738l0.05294,-0.97134c2.07728,-2.0959 4.01436,-4.34178 5.77341,-6.71109c0,0 1.11248,-1.4833 2.99104,-2.54478c2.01054,-1.8824 4.52103,-3.43808 6.64952,-5.11023c8.29823,-6.51911 24.25274,-11.45623 32.10748,-1.1414c1.66453,2.18586 1.99203,5.15557 2.48828,7.85785c0.95427,5.19638 0.08414,11.74133 0,17.07712l-1.1901,5.023c0,0 -2.06155,8.24621 -10.30777,6.18465z" fill="#ffffff"/><path d="M366.89737,240.19869l0.10263,0.01081v-0.2095c0,0 0,-8.5 8.5,-8.5c8.5,0 8.5,8.5 8.5,8.5l-2.51479,-1.0355c0.32318,0.3205 0.62075,0.66678 0.88939,1.0355h1.6254v5c0,4.69442 -3.80558,8.5 -8.5,8.5c-2.49779,0 -4.74394,-1.07737 -6.2991,-2.79277c-5.56653,-3.98257 -2.30353,-10.50854 -2.30353,-10.50854z" fill="#ffffff"/></g></g></svg>