<svg version="1.1" xmlns="http://www.w3.org/2000/svg" xmlns:xlink="http://www.w3.org/1999/xlink" width="149.5" height="86.91661" viewBox="0,0,149.5,86.91661"><defs><linearGradient x1="240" y1="124.66676" x2="240" y2="209.22998" gradientUnits="userSpaceOnUse" id="color-1"><stop offset="0" stop-color="#444459" stop-opacity="0"/><stop offset="1" stop-color="#444459"/></linearGradient></defs><g transform="translate(-165.25,-124.66675)"><g data-paper-data="{&quot;isPaintingLayer&quot;:true}" fill-rule="nonzero" stroke-linecap="butt" stroke-linejoin="miter" stroke-miterlimit="10" stroke-dasharray="" stroke-dashoffset="0" style="mix-blend-mode: normal"><path d="M171.5,209.22998v-84.56322h137v84.56323z" fill="url(#color-1)" stroke="none" stroke-width="0"/><path d="M171.5,205.33337v-41.00001h137v41.00001z" fill="#1ade00" stroke="#ffffff" stroke-width="12.5"/><path d="M171.5,205.33337v-60.66667h137v60.66667z" fill="#c90000" stroke="none" stroke-width="0"/><path d="M171.5,200.33337v-60.66667h137v60.66667z" fill="#e30000" stroke="none" stroke-width="0"/><text transform="translate(256.33907,177.05355) scale(0.78778,0.48161)" font-size="40" xml:space="preserve" fill="#000000" fill-rule="nonzero" stroke="none" stroke-width="1" stroke-linecap="butt" stroke-linejoin="miter" stroke-miterlimit="10" stroke-dasharray="" stroke-dashoffset="0" font-family="Serif" font-weight="normal" text-anchor="start" style="mix-blend-mode: normal"><tspan x="0" dy="0">📉</tspan></text><g fill="#231f20" stroke="none" stroke-width="0"><path d="M188.28066,179.74146c-1.45302,0 -2.85638,-0.09111 -4.22247,-0.28091c-1.36609,-0.18981 -2.58316,-0.44795 -3.66361,-0.7896l0.64579,-3.70503c1.31642,0.41757 2.62042,0.74404 3.92441,0.97181c1.30399,0.22777 2.49622,0.34165 3.60152,0.34165c1.27916,0 2.26027,-0.17462 2.94331,-0.52387c0.68304,-0.34925 1.01836,-0.84274 1.01836,-1.49568c0,-0.85033 -0.69547,-1.52605 -2.09882,-2.02714l-3.66361,-1.35902c-1.81318,-0.67571 -3.20411,-1.51086 -4.19763,-2.51304c-0.99352,-0.99459 -1.49028,-2.09547 -1.49028,-3.30264c0,-1.70067 0.73272,-3.01413 2.21058,-3.94798c1.47787,-0.93385 3.55184,-1.39698 6.24677,-1.39698c1.5648,0 3.05508,0.21259 4.45843,0.63016c1.40335,0.41757 2.65767,1.02496 3.73812,1.82215l-3.2662,2.86988c-0.83208,-0.59979 -1.65172,-1.0705 -2.49622,-1.38938c-0.83208,-0.32647 -1.63931,-0.48591 -2.42171,-0.48591c-1.05561,0 -1.87527,0.17462 -2.45897,0.51628c-0.5837,0.34165 -0.88175,0.84274 -0.88175,1.48809c0,0.43276 0.21112,0.83515 0.62095,1.22236c0.40983,0.38721 1.00594,0.72886 1.7635,1.04014l3.45248,1.35902c1.80076,0.71367 3.17927,1.54883 4.16038,2.49786c0.98111,0.94903 1.46544,1.97399 1.46544,3.05969c0,1.73104 -0.81966,3.05969 -2.44655,4.00113c-1.62689,0.93385 -3.93682,1.40457 -6.94223,1.40457z"/><path d="M200.87354,179.46814v-19.47418h4.74407v19.47418zM200.87354,163.32696v-3.33301h17.48598v3.33301zM200.87354,171.38996v-3.34819h14.25704v3.34819zM200.87354,179.46814v-3.33301h17.48598v3.33301z"/><path d="M220.80607,179.46814v-19.47418h4.74407v19.47418zM220.80607,179.46814v-3.33301h17.48598v3.33301z"/><path d="M240.72618,179.46814v-19.47418h4.74406v19.47418zM240.72618,179.46814v-3.33301h17.48598v3.33301z"/></g></g></g></svg>