<svg version="1.1" xmlns="http://www.w3.org/2000/svg" xmlns:xlink="http://www.w3.org/1999/xlink" width="149.5" height="86.91667" viewBox="0,0,149.5,86.91667"><g transform="translate(-165.25,-124.66669)"><g data-paper-data="{&quot;isPaintingLayer&quot;:true}" fill-rule="nonzero" stroke-linecap="butt" stroke-linejoin="miter" stroke-miterlimit="10" stroke-dasharray="" stroke-dashoffset="0" style="mix-blend-mode: normal"><path d="M171.5,205.33336v-41.00001h137v41.00001z" fill="#1ade00" stroke="#ffffff" stroke-width="12.5"/><path d="M171.5,205.33336v-60.66667h137v60.66667z" fill="#de0000" stroke="none" stroke-width="0"/><path d="M171.5,185.33336v-60.66667h137v60.66667z" fill="#ff0000" stroke="none" stroke-width="0"/><text transform="translate(256.33907,166.0303) scale(0.78778,0.78778)" font-size="40" xml:space="preserve" fill="#000000" fill-rule="nonzero" stroke="none" stroke-width="1" stroke-linecap="butt" stroke-linejoin="miter" stroke-miterlimit="10" stroke-dasharray="" stroke-dashoffset="0" font-family="Serif" font-weight="normal" text-anchor="start" style="mix-blend-mode: normal"><tspan x="0" dy="0">📉</tspan></text><g fill="#231f20" stroke="none" stroke-width="0"><path d="M188.28065,170.42702c-1.45303,0 -2.85637,-0.14903 -4.22247,-0.4595c-1.36609,-0.31048 -2.58316,-0.73272 -3.66361,-1.29158l0.64579,-6.06048c1.31642,0.68305 2.62041,1.21706 3.92441,1.58963c1.304,0.37257 2.49622,0.55886 3.60152,0.55886c1.27916,0 2.26026,-0.28564 2.94331,-0.85691c0.68305,-0.57127 1.01836,-1.37851 1.01836,-2.44655c0,-1.39093 -0.69547,-2.49622 -2.09881,-3.31588l-3.66361,-2.223c-1.81318,-1.10529 -3.20411,-2.47138 -4.19763,-4.1107c-0.99352,-1.62689 -1.49028,-3.42765 -1.49028,-5.40227c0,-2.78186 0.73272,-4.93035 2.21059,-6.45789c1.47786,-1.52754 3.55184,-2.2851 6.24677,-2.2851c1.5648,0 3.05508,0.34773 4.45843,1.03078c1.40335,0.68305 2.65767,1.67657 3.73812,2.98056l-3.2662,4.69439c-0.83207,-0.9811 -1.65173,-1.75108 -2.49622,-2.27268c-0.83207,-0.53402 -1.63931,-0.79482 -2.42171,-0.79482c-1.05562,0 -1.87527,0.28564 -2.45897,0.84449c-0.58369,0.55886 -0.88175,1.37851 -0.88175,2.43413c0,0.70788 0.21112,1.36609 0.62095,1.99946c0.40983,0.63337 1.00594,1.19223 1.7635,1.70141l3.45249,2.223c1.80076,1.16739 3.17927,2.53348 4.16037,4.08586c0.9811,1.55238 1.46544,3.22895 1.46544,5.00486c0,2.83154 -0.81966,5.00486 -2.44655,6.54482c-1.62689,1.52754 -3.93683,2.29752 -6.94223,2.29752z"/><path d="M200.87354,169.97994v-31.85479h4.74407v31.85479zM200.87354,143.5771v-5.45195h17.48598v5.45195zM200.87354,156.7661v-5.47679h14.25703v5.47679zM200.87354,169.97994v-5.45195h17.48598v5.45195z"/><path d="M220.80607,169.97994v-31.85479h4.74407v31.85479zM220.80607,169.97994v-5.45195h17.48598v5.45195z"/><path d="M240.72617,169.97994v-31.85479h4.74407v31.85479zM240.72617,169.97994v-5.45195h17.48598v5.45195z"/></g></g></g></svg>