<svg version="1.1" xmlns="http://www.w3.org/2000/svg" xmlns:xlink="http://www.w3.org/1999/xlink" width="427.72569" height="335.37594" viewBox="0,0,427.72569,335.37594"><g transform="translate(-26.13716,-12.31203)"><g data-paper-data="{&quot;isPaintingLayer&quot;:true}" fill-rule="nonzero" stroke="none" stroke-width="0.5" stroke-linecap="butt" stroke-linejoin="miter" stroke-miterlimit="10" stroke-dasharray="" stroke-dashoffset="0" style="mix-blend-mode: normal"><path d="M403.14502,302.39736c-0.53357,1.53681 -1.23078,3.02816 -1.77562,4.56185c-1.76144,1.95541 -6.2309,7.33952 -8.67967,7.98148c-10.17628,2.66777 -14.37158,-1.01267 -20.70889,-9.08467c-3.71282,-4.72912 -11.00537,-18.25877 -15.70803,-27.22616c-3.38104,1.6737 -6.49692,3.23381 -8.84641,4.42705c-2.47661,3.77758 -5.34766,7.44516 -9.33792,11.55809c-4.89144,5.04182 -10.71927,9.08195 -16.08246,13.61873c-8.7213,7.37745 -18.52406,19.49535 -30.54131,21.33905c-3.33308,0.51136 -6.3115,0.33769 -9.12526,-0.29805c-2.059,2.11616 -4.19935,4.08529 -6.95929,4.78821c-15.05785,3.83503 -15.88985,-2.74042 -17.51727,-13.36103c-0.36873,-2.40637 -0.29747,-4.10255 0.06767,-5.58959c-2.6654,-2.26607 -5.06591,-4.66917 -6.50238,-7.03866c-1.15643,-1.90756 -4.37646,-11.09394 -6.94054,-18.7864c-4.56102,1.3897 -9.14751,2.71065 -13.54305,4.54371c-3.46533,1.44513 -6.49845,3.76274 -9.75545,5.63059c-8.31023,4.76582 -16.62943,9.51657 -24.9901,14.19334c-14.95373,8.36479 -23.62417,13.2169 -39.65639,19.34536c-4.75927,1.81927 -9.45755,4.98663 -14.54466,4.70073c-14.6231,-0.82182 -14.84661,-12.65176 -10.11825,-22.3926c2.81277,-5.79454 6.75201,-10.9122 11.09557,-15.69541c2.97746,-6.03707 8.55931,-11.71824 12.74009,-15.90488c0.53729,-0.53804 1.0791,-1.07139 1.62466,-1.60085c-0.43259,0.17789 -0.86702,0.3491 -1.30634,0.50231c-6.24873,2.17924 -12.53065,4.26381 -18.76164,6.49328c-17.85853,6.38985 -35.34528,14.4252 -53.43608,20.14688c-3.22289,1.01932 -24.70741,7.58524 -30.13117,4.01924c-9.84849,-6.47515 -5.74446,-12.92064 -2.91371,-19.77453c1.08318,-2.62262 1.95208,-5.36609 3.41451,-7.7977c3.12636,-5.19825 12.45547,-15.90829 15.78572,-20.16239c1.86941,-2.388 3.60948,-4.87695 5.39995,-7.32586c-1.82101,0.83158 -3.48717,1.62884 -4.91663,2.3665c-5.26949,2.71927 -10.17718,6.08877 -15.26577,9.13315c-5.41046,1.96368 -10.40457,5.03119 -16.34601,3.99377c-3.444,-0.60135 -7.93362,-0.16233 -10.07107,-2.92893c-2.74144,-3.54837 -2.9589,-8.78235 -2.41577,-13.23335c0.48731,-3.99357 12.06863,-14.62558 13.55851,-16.04871c8.99926,-8.59608 17.97345,-17.23509 27.39816,-25.36245c4.86245,-4.19311 10.13648,-7.88948 15.04009,-12.03438c3.20423,-2.70846 6.2784,-5.56808 9.33322,-8.44515c-3.0954,-1.14264 -6.20718,-2.22661 -9.42392,-2.92667c-9.56257,-2.0811 -19.14619,-4.26591 -28.39234,-7.47255c-6.07072,-2.10537 -7.42489,-1.03239 -11.5334,-7.2905c-1.29208,-1.9681 -1.57624,-4.43699 -2.36437,-6.65549c0,-2.06788 -0.37395,-4.16986 0,-6.20364c0.94983,-5.16585 3.76811,-8.46401 6.99985,-11.65557c0.05334,-2.57907 0.31964,-5.15084 1.98897,-6.89673c0.76503,-0.80012 3.88044,-2.11936 7.66904,-3.52352c3.9751,-4.96403 5.88414,-7.84903 15.52923,-14.55003c5.24544,-3.64431 11.42511,-5.71503 17.09438,-8.657c4.96548,-2.57675 9.88614,-5.23921 14.80807,-7.8982c1.5032,-0.81208 4.05043,-2.71813 6.0284,-3.8293c-0.23355,-0.2393 -0.46793,-0.47762 -0.69835,-0.71862c-1.85749,-1.94282 -3.48415,-4.16306 -5.65407,-5.74932c-3.23767,-2.3668 -6.82823,-4.23255 -10.42567,-6.00531c-5.70513,-2.8114 -26.67861,-11.42005 -32.16787,-13.62383c-3.19924,-1.2844 -7.10973,-1.49211 -10.0675,-3.11198c-4.40773,-1.18077 -8.80982,-2.37305 -13.18904,-3.62549l-9.69175,-13.1861c5.51623,-0.82272 10.99629,-2.27503 16.50794,-3.17736l-0.90531,-2.74312c2.4059,0.68667 4.81832,1.35602 7.23452,2.01583c1.21741,-0.06818 2.43759,-0.08816 3.66126,-0.04746c3.89841,0.12968 7.41007,2.21292 10.97411,3.98485c8.23134,2.22042 16.44316,4.51163 24.52855,7.17926c6.4922,2.14198 12.71288,5.00865 18.9462,7.83996c2.10643,-1.74752 5.45506,-2.32498 8.09809,-3.29003c1.44146,-0.52632 3.06745,-0.10609 4.60182,-0.12913c3.04018,-0.04564 6.16867,0.15199 9.25902,0.18781c-6.55001,-7.29039 -12.13812,-15.09808 -17.49781,-23.36098c-1.22249,-5.5976 -2.53198,-8.76872 -1.63208,-14.42866c1.53674,-9.66532 9.96634,-18.76422 20.32301,-17.29218c9.46469,1.34526 22.84907,8.30864 30.37093,12.13398c5.24683,2.66834 10.19104,5.67316 14.89057,8.95221c2.36216,-4.68758 4.746,-9.368 7.17394,-14.03928l13.2747,-5.63973c2.88943,7.21793 6.167,14.29234 8.66828,21.65378c1.25856,3.70401 1.32324,7.74418 2.57944,11.44899c0.9575,2.82387 2.47725,5.43886 4.01336,7.99453c0.05894,0.09807 0.12163,0.19367 0.18745,0.2872c4.60701,-6.59884 14.78611,-13.71482 19.08012,-16.37196c18.83985,-11.65811 39.34631,-17.08869 60.10071,-23.99705c3.4179,-1.13769 18.65551,-7.27497 22.76879,-8.91851l14.173,2.04996c-1.07564,6.19907 -1.43083,12.56732 -3.22691,18.5972c-0.71894,2.41364 -2.78919,4.19411 -4.18601,6.28969c-3.38423,5.07722 -6.62589,10.25261 -10.15711,15.22872c-0.57082,0.80438 -1.11639,1.63654 -1.64951,2.48294c0.34762,-0.05302 0.69549,-0.10448 1.04365,-0.15408c23.4821,-3.34564 46.80422,-3.10458 70.44247,-3.10458c5.7877,0 23.24847,-1.34303 26.81675,5.28142c2.44387,4.537 -1.48846,10.41005 -3.9159,14.95586c-1.15516,2.16324 -4.21717,2.51909 -6.19203,3.97304c-3.109,2.28894 -6.17019,4.65803 -9.03961,7.24096c-5.79851,5.21957 -8.1953,7.80893 -10.90078,11.33889c0.58735,0.1274 1.17744,0.24023 1.77205,0.32919c8.19396,1.22597 16.57882,1.82936 24.47271,4.3454c11.13126,3.5479 23.46906,9.42711 33.17555,15.49219c3.63761,2.27295 7.23964,4.81425 10.00306,8.09481c2.60863,3.0968 5.72389,6.62249 5.80435,10.67078c0.17553,8.83155 -5.74113,11.17717 -11.52401,14.22173c-13.16248,6.92975 -27.39532,12.57741 -39.62503,21.16815c-0.58782,0.41291 -1.13704,0.87588 -1.66927,1.36075c0.47445,0.42855 0.94912,0.8568 1.44334,1.25625c14.47154,8.20837 28.16407,18.70901 34.73118,34.7303c1.19713,2.92054 2.65866,12.98387 0.88645,16.36711c-5.46741,10.43753 -18.20986,15.09724 -27.03584,22.01685c-2.28411,1.79075 -4.31737,3.91115 -6.72947,5.52537c-0.50839,0.34022 -1.05091,0.6206 -1.60822,0.87516c0.50593,0.88415 1.02935,1.75021 1.60952,2.5576c0.41701,3.29085 0.49405,6.6429 1.25102,9.87254c0.56989,2.43147 1.87277,4.63225 2.70087,6.98832c0.52572,1.49574 0.64676,3.14129 1.35755,4.55847c1.081,2.15531 4.23236,4.23775 5.9246,5.56853l8.92833,13.87965c-5.74898,2.32804 -11.05096,7.26751 -17.24695,6.98411c-1.434,-0.06559 -2.79687,-0.41662 -4.10807,-0.95798zM243.30319,268.68075c0.35636,0.79198 0.76563,1.53036 1.40558,1.9032c2.17474,1.26701 6.68437,-0.77113 7.36797,1.65116c0.74454,2.63824 -3.15233,4.5174 -5.07597,6.47041c-1.48413,1.50679 -2.98179,3.0084 -4.51475,4.47175c-0.81832,-2.54866 -1.38294,-4.3881 -1.494,-4.87356c-0.56516,-2.47049 -0.10316,-5.06765 -0.12913,-7.60182c-0.00344,-0.33526 -0.0729,-0.73591 -0.16814,-1.16248c0.66125,-0.21258 1.32127,-0.42842 1.97953,-0.6489c0.20964,-0.07022 0.41928,-0.14014 0.62891,-0.20975zM161.03107,309.64251c-0.91442,0.91656 -1.56053,1.56959 -1.83096,1.85387c-2.61177,2.74554 -4.84423,5.84468 -6.91259,9.02932c-1.3854,0.08692 -2.6946,-0.07481 -3.81814,-0.84067c-1.89124,-1.28915 -3.37778,-2.63088 -4.51409,-4.0097c1.61918,-0.52738 3.75667,-0.63507 5.22785,-1.2718c3.90085,-1.68832 7.91132,-3.14872 11.84794,-4.76102zM168.97721,298.75611c-2.21775,2.33578 -4.25225,4.84516 -6.37059,7.27307c-0.65415,0.74975 -0.89114,2.33413 -1.88594,2.31378c-0.78413,-0.01604 0.48051,-1.65497 0.11705,-2.34996c-0.8614,-1.64712 -2.58559,-2.7047 -3.58133,-4.27426c-0.3579,-0.56416 -1.02923,-1.81512 -0.37889,-1.96818c2.73649,-0.64405 5.65568,0.505 8.43347,0.07249c1.26146,-0.19641 2.47039,-0.60447 3.66622,-1.06693zM161.25505,280.63359c2.15519,-2.40022 4.39022,-4.70318 7.0533,-6.48372c2.12609,-1.42151 5.07351,-0.65056 7.61027,-0.97585l2.49728,5.51256c-5.45056,0.59 -10.95159,0.82352 -16.35167,1.77c-0.2727,0.0478 -0.54221,0.10759 -0.80917,0.177z" fill="#fff700"/><path d="M241.91192,94.11135c1.94169,-0.72909 3.84946,-1.55213 5.70916,-2.46524c15.79673,-7.75616 15.36803,-8.46349 30.45218,-19.09776c6.7419,-4.75301 16.46068,-14.1672 26.38522,-13.83828c4.28608,0.14205 8.96614,1.06364 12.30526,3.75454c2.62227,2.1132 2.9653,6.08316 3.91264,9.31494c1.36128,4.64389 2.15468,23.66185 2.18164,24.61029c0.19235,6.76795 0.00388,13.54136 0.00487,20.31204c0.00037,2.50409 0.50851,5.216 0.605,7.80272c4.24761,-1.46175 8.58184,-2.70464 12.64689,-4.6036c2.17099,-1.01416 3.79764,-2.92351 5.72068,-4.35306c5.15131,-3.82941 10.45369,-7.45908 15.50187,-11.42346c11.39912,-8.95184 19.23594,-23.43362 33.3396,-29.18075c2.88491,-1.17558 6.25076,0.44748 9.26265,1.24322c7.60839,2.01014 14.86186,8.00371 17.49423,15.61709c0.51083,1.47743 0.43922,7.81631 0.42908,9.89784c-0.03428,7.03311 -0.81145,15.63508 -3.85486,22.04554c-4.18445,8.81387 -7.19634,11.16056 -13.40529,17.23083c-4.95983,4.84905 -9.57089,10.08848 -14.91333,14.51245c-5.42305,4.49072 -11.52068,8.09804 -17.28103,12.14706c-2.07881,1.26892 -12.81511,8.20489 -21.71411,13.06307c2.57557,1.58412 4.95007,3.05396 6.42686,3.97131c5.91542,3.67455 12.00562,7.08223 17.74224,11.0301c2.14146,1.47373 3.88944,3.45016 5.82328,5.1874c6.92571,6.22165 14.00852,12.33074 20.22988,19.25671c4.65651,5.18389 9.63321,10.09876 13.95394,15.56566c2.36313,2.99 4.03397,6.46732 6.02704,9.71573c3.71261,6.051 8.00695,11.78753 11.0899,18.18233c1.90931,3.96038 3.12206,8.29101 3.76947,12.63967c2.12188,14.25274 -13.20142,20.00721 -24.78508,17.2717c-7.11092,-1.67927 -8.22047,-3.25827 -13.66094,-7.26502c-5.10231,-5.07604 -9.90926,-9.6198 -14.36429,-15.44455c-2.98692,-3.90526 -5.39627,-8.2214 -8.19611,-12.26289c-1.77509,-2.56229 -5.23573,-10.09312 -10.37917,-8.16682c-3.51997,1.31829 -9.45254,6.12973 -11.30565,9.0394c-2.23165,3.50403 -3.39785,7.58214 -5.08172,11.37991c-2.49199,5.62037 -4.4466,11.50759 -7.44585,16.87445c-2.44097,4.36789 -5.71219,8.22295 -8.78612,12.17108c-5.99022,7.69381 -11.48437,12.6683 -21.71388,11.82081c-2.86011,-0.23695 -5.82513,-0.41984 -8.4735,-1.52552c-4.51805,-1.88627 -9.13806,-3.99995 -12.73004,-7.32687c-4.84456,-4.48706 -8.75831,-16.28393 -9.80761,-22.30964c-1.53012,-8.78692 -2.2078,-18.97824 -1.32288,-28.39824c-1.93112,1.07069 -3.8842,2.10721 -5.78671,3.22293c-14.85792,8.71334 -30.31807,17.01922 -44.47468,26.82494c-10.89205,7.54449 -21.93851,14.87036 -32.68333,22.6231c-11.03695,7.96351 -21.25759,16.93447 -32.68157,24.37413c-6.51742,4.24435 -26.76897,19.09544 -35.99208,18.519c-17.26784,-1.07922 -11.49376,-15.27289 -8.15437,-23.46723c1.83312,-4.49818 4.85137,-8.4169 7.32624,-12.59649c3.05235,-5.15485 6.08016,-10.32581 9.25501,-15.40613c6.06142,-9.69934 12.15599,-19.53929 18.77636,-28.93021c-0.57916,0.09141 -1.1577,0.18601 -1.73512,0.28632c-5.58145,0.96953 -11.18171,1.84104 -16.73689,2.95123c-5.88675,1.17645 -11.74618,2.49356 -17.58056,3.90702c-5.20398,1.26074 -10.27648,3.06792 -15.52783,4.11396c-8.38643,1.67052 -17.49532,1.43264 -25.69512,-1.24277c-2.63391,-0.85938 -5.7663,-1.21041 -7.65544,-3.23702c-3.69717,-3.9662 -8.69073,-8.53781 -8.36596,-13.95023c0.46632,-7.7715 14.8049,-11.1342 19.66854,-13.47234c17.00515,-8.17503 33.1363,-18.5113 49.06486,-28.55804c5.51218,-3.47674 11.18965,-6.70397 16.53852,-10.42705c5.25996,-3.66118 10.00123,-8.03805 15.25181,-11.70851c-5.80253,-1.29848 -11.68687,-2.25983 -17.52244,-3.40857c-23.55702,-4.63723 -47.3442,-7.27446 -69.38038,-17.77173c-9.28671,-4.42387 -15.25055,-8.32015 -14.66155,-20.37928c0.35528,-7.27394 6.44881,-10.20327 11.65883,-12.72334c13.67573,-6.61491 28.53017,-5.70015 43.10284,-8.7155c2.97565,-0.61572 5.79915,-1.81903 8.72153,-2.65312c-0.11307,-0.28141 -0.23335,-0.55731 -0.36727,-0.82281c-4.63976,-7.94713 -10.72635,-18.46981 -15.45363,-26.10543c-3.84474,-6.21013 -8.85705,-11.6195 -13.46364,-17.28758c-3.73165,-4.59153 -20.13625,-22.40069 -21.22725,-24.28586c-3.49923,-6.04641 -9.06864,-13.16445 -6.87663,-19.7976c2.72777,-8.25438 29.91425,-4.51725 32.97802,-4.00905c13.83682,2.29516 30.1797,8.08232 43.61042,12.11942c7.36451,2.21368 14.86308,3.95762 22.25519,6.07731c7.50836,2.15303 14.59026,5.60404 22.02236,8.00713c6.245,2.01926 12.63034,3.73134 19.1036,4.8506c3.22732,-4.3412 7.29874,-7.86982 13.7013,-8.15344c2.75311,-0.12196 6.44426,5.38805 8.74648,9.66051c0.59796,-1.01648 1.29709,-1.8113 2.36948,-1.81683l5.62335,-8.43503c1.78054,-2.75701 4.88041,-4.58205 8.40654,-4.58205c5.52285,0 10,4.47715 10,10c0,2.10129 -0.64811,4.05121 -1.75534,5.66076l-1.87347,2.8102c-3.85147,6.07116 -3.93267,12.85084 -4.32216,19.9385z" fill="#ff9f00"/><path d="M117.92187,191.65799c6.94145,-5.10208 14.27438,-9.65064 21.49787,-14.34491c10.32576,-6.71032 11.05647,-8.53073 22.42389,-15.26029c3.56959,-2.11321 7.32031,-3.93995 10.90859,-6.01936c-2.07784,-0.62696 -4.17579,-1.19862 -6.22665,-1.90486c-12.72355,-4.38156 -30.72763,-10.08994 -23.77509,-29.27378c0.69619,-1.92096 14.06561,-5.22842 16.81489,-5.88539c8.56244,-2.04609 9.40325,-1.70348 17.88571,-4.66748c2.85144,-0.99637 5.48392,-2.61275 8.40116,-3.39581c1.01103,-0.27138 8.98723,-0.20493 10.01066,-0.20422c6.61914,0.00461 13.2338,0.48943 19.83045,1.03454c0,0 4.36996,0.36416 7.08114,3.50398c1.08042,-0.89348 2.09301,-1.59836 2.77551,-1.28771c0.38551,-0.24275 0.76912,-0.48851 1.15062,-0.73764l1.21193,0.59602l0.5713,-0.19043c0.45964,-0.29343 0.91931,-0.58681 1.37905,-0.8801v-0.03866h0.0606c2.86697,-1.8289 5.73634,-3.65401 8.61487,-5.46459c6.96769,-4.38265 17.91304,-11.57441 26.027,-14.2679c4.36791,-1.44995 11.3358,0.80743 15.14463,1.62007c1.5847,2.77218 3.3753,5.43641 4.7541,8.31655c0.40353,0.84292 0.16622,1.89554 0.54394,2.75034c0.51731,1.1707 1.76924,1.98059 2.09365,3.2187c2.30676,8.80354 3.21912,12.50901 -3.62077,19.32362c-2.56963,2.56013 -7.13958,4.12133 -11.16404,4.92393c5.91966,3.88608 17.06158,10.62502 18.10566,11.23102c14.09829,8.18289 24.49059,13.22984 37.49634,23.25995c5.42873,4.18667 10.31392,9.03446 15.49059,13.52905c4.33104,3.76039 9.04415,7.11405 13.04276,11.22485l8.09251,4.49584c3.16359,1.67925 5.31817,5.0073 5.31817,8.83857c0,5.52285 -4.47715,10 -10,10h-3v-0.4578c-0.26447,-0.08307 -0.52421,-0.17682 -0.7787,-0.28076l-1.11237,0.55813c-11.01669,-4.12377 -21.71495,-9.44787 -32.40202,-14.37734c-0.13687,-0.06313 -0.2804,-0.12184 -0.42895,-0.17731c1.00986,6.15481 2.81886,12.18117 3.62823,18.36854c0.54888,4.19599 0.26588,8.48328 0.94709,12.65982c0.5454,3.34388 2.55453,6.41117 2.71697,9.7947l2.84277,8.5283c0.37995,1.0568 0.58698,2.19609 0.58698,3.38372c0,5.52285 -4.47715,10 -10,10c-2.76142,0 -5.26142,-1.11929 -7.07107,-2.92893l-1.48121,-1.48121c-2.92648,-2.00524 -5.29054,-4.74067 -7.99974,-7.03532c-9.05054,-7.66565 -18.95215,-14.21308 -27.97814,-21.9811c-5.53049,-4.7597 -10.62533,-10.00672 -16.0893,-14.84263c-4.78731,-4.23703 -10.11261,-7.93542 -14.35882,-12.71457c-0.29412,-0.33103 -0.59545,-0.66896 -0.8976,-1.01381c-1.58327,9.48397 -4.69529,21.91667 -6.27557,24.65624c-6.22361,10.78922 -14.84893,17.77643 -25.96097,7.18843c-1.32122,-1.25891 -1.71696,-3.07777 -1.81571,-5.01912c-4.03392,0.33931 -8.16667,0.22126 -12.52512,0.03133c-16.72986,-0.72906 -23.46585,-0.61236 -39.99279,-2.96441c-5.45094,-0.77575 -10.81013,-2.10176 -16.23592,-3.03736c-6.92173,-1.19356 -13.91941,-2.1121 -20.71433,-3.88112c-0.09032,0.00592 -0.18063,0.01193 -0.27093,0.01804l-0.33278,-0.11052v0.11605h-9c-5.52285,0 -10,-4.47715 -10,-10c0,-2.76142 1.11929,-5.26142 2.92893,-7.07107l3.36689,-3.36689c2.22002,-2.72455 5.53575,-4.96875 7.76315,-6.60594zM275.00363,199.82642c0.357,0.35197 0.71522,0.70201 1.07526,1.04927c-0.07957,-0.53046 -0.15732,-1.05814 -0.23266,-1.57667c-0.21303,0.14131 -0.43013,0.27998 -0.65144,0.4159c-0.06312,0.03877 -0.12685,0.07591 -0.19115,0.1115zM266.72302,113.75758c-0.02507,-0.04828 -0.05002,-0.09679 -0.07483,-0.14552c-0.09842,0.05135 -0.19664,0.10312 -0.29467,0.15528c0.12325,-0.00172 0.24643,-0.00489 0.3695,-0.00976z" fill="#ff0000"/><path d="M217.86289,118.70189c-6.89385,0 -9.03519,-4.75252 -9.70031,-7.70493c-0.04329,-0.02213 -0.08555,-0.04111 -0.12652,-0.05628c-2.24345,-0.83066 -4.42222,-1.93486 -6.77499,-2.36792c-1.82736,-0.33635 -3.71622,0.03697 -5.57337,0.09505c-0.91711,0.02868 -1.90457,-0.19679 -2.7477,0.16519c-0.80694,0.34643 -1.33885,1.15023 -1.89645,1.82865c-2.11848,2.57746 -5.97962,6.98593 -6.34043,10.8207c-0.96278,10.23274 1.40859,23.79723 2.13308,33.49736c0.5089,6.81368 0.89025,13.64105 1.02358,20.47241c0.06606,3.38487 1.6079,7.44111 -0.42596,10.14761c-0.52232,0.69507 -1.10474,1.32664 -1.73373,1.90898c-0.02255,0.12359 -0.04738,0.24639 -0.07443,0.36835l0.55774,0.37183l-1.91397,2.87095c-1.78054,2.75701 -4.88041,4.58205 -8.40654,4.58205c-5.52285,0 -10,-4.47715 -10,-10v-3.66247c-0.28928,-3.24224 -0.67653,-6.44818 -1.17607,-9.62398l-2.35179,4.23072c-2.0582,0.92941 -3.96804,2.30753 -6.17461,2.78822c-4.32167,0.94144 -15.32676,-0.28722 -18.77739,-0.8426c-16.62243,-2.67535 -31.78418,-7.31272 -44.94748,-18.229c-5.77955,-4.79296 -14.31785,-14.01968 -15.39781,-21.79908c-1.70341,-12.27037 2.4055,-22.05504 8.2581,-32.01987c3.46959,-5.90743 8.00663,-11.76208 14.34326,-14.90613c9.0164,-4.47367 20.53007,-1.35421 29.38607,1.57736c0,0 9.48683,3.16228 6.32456,12.64911c-3.16228,9.48683 -12.64911,6.32456 -12.64911,6.32456c-3.47377,-1.16816 -7.1736,-2.5122 -10.83772,-2.48683c-0.29634,0.00205 -3.36462,-0.14849 -3.77621,0.06419c-1.92839,0.99647 -5.34545,6.56598 -5.65674,7.09387c-1.48167,2.51262 -3.12072,5.00028 -4.00809,7.77898c-1.04927,3.28567 -2.05902,6.76737 -1.73381,10.20115c0.24518,2.58877 7.47721,9.28399 8.60219,10.20092c10.3543,8.43937 22.05702,11.7066 35.05252,13.771c2.78799,0.44289 6.70725,1.48975 9.97902,1.03305c1.46599,-1.74804 3.80599,-3.14316 7.54112,-3.14316c1.31379,0 2.45497,0.1726 3.44623,0.47246c-1.05167,-3.61028 -2.28776,-7.19319 -3.73099,-10.75855c0,0 -3.71391,-9.28477 5.57086,-12.99867c0.45693,-0.18277 0.90037,-0.33406 1.33055,-0.45653c-0.52115,-9.03276 0.15931,-17.97295 4.61299,-26.06292c3.06334,-5.56448 9.49716,-13.46866 15.69327,-16.32689c9.68731,-4.46871 21.65378,-1.73283 30.90393,1.89232c2.10531,0.82508 4.27581,1.68764 6.02027,3.12637c2.12958,1.75636 3.59446,4.19039 5.39169,6.28559l0.7612,6.82683c0,0 0,10 -10,10z" fill="#ffffff"/><path d="M268.33503,184.64616c-8.94427,4.47214 -13.41641,-4.47214 -13.41641,-4.47214l-0.37623,-0.92513c-1.54361,-2.33851 -2.70399,-4.91167 -4.18601,-7.28969c-0.86154,-1.3824 -1.78836,-2.65895 -2.70812,-3.91659c-0.22505,0.24437 -0.46276,0.48784 -0.71431,0.73034c-6.57863,6.34198 -18.01842,9.20877 -26.54053,5.30778c-3.11018,-1.42368 -6.77653,-2.66529 -8.64296,-5.53175c-2.2683,-3.48366 -2.38428,-8.00875 -2.86242,-12.13821c-0.46147,-3.9855 -0.53117,-8.06838 0.06332,-12.03622c0.70782,-4.72426 1.93066,-9.42344 3.80992,-13.81525c5.94924,-13.90327 19.41094,-17.76204 33.1016,-17.85742c0,0 10,0 10,10c0,3.4113 -1.16369,5.6589 -2.69714,7.13978c2.06399,1.85154 2.98191,4.14632 2.98191,4.14632c2.30772,5.80655 2.91197,6.79386 4.47043,13.51479c0.38869,1.67624 0.31575,3.44288 0.75463,5.10668c0.79238,3.00395 4.5343,6.50084 5.99668,8.83513c1.36591,2.1803 2.37302,4.57888 3.81399,6.71031l1.62377,3.07487c0,0 4.47214,8.94427 -4.47214,13.41641zM237.57812,141.4158c0,0 -1.68234,-4.20585 0.04825,-8.08841c-2.90821,0.72911 -5.42976,2.27466 -6.66189,5.51708c-1.00323,2.64004 -1.82131,5.3847 -2.19008,8.18475c-0.34663,2.63195 0.27851,5.31784 0.06332,7.96378c-0.01733,0.2131 -0.04282,0.46058 -0.09007,0.70461c0.96928,-0.06225 3.42353,-0.31046 4.04416,-1.06679c1.87703,-2.28739 1.85239,-5.63379 3.08792,-8.32245c0.30375,-0.66101 0.68611,-1.27903 1.09491,-1.88259c0.10548,-0.73262 0.31053,-1.71142 0.70909,-2.74847c-0.03473,-0.08582 -0.06993,-0.17297 -0.10562,-0.26151z" fill="#ffffff"/><path d="M276.91862,185.17403c-4.47214,-8.94427 4.47214,-13.41641 4.47214,-13.41641l3.21482,-1.56224c0.78385,-0.59818 1.46899,-1.37909 2.25544,-1.97247c-0.13037,-0.88089 -0.4692,-1.75568 -0.53612,-2.62964c-5.51582,-0.51399 -14.32908,-3.56736 -16.74268,-7.2851c-5.96023,-9.18069 0.70372,-15.03213 5.70156,-21.12986c7.35883,-8.97832 15.74116,-18.95937 26.10698,-24.4207c0,0 8.94427,-4.47214 13.41641,4.47214c4.47214,8.94427 -4.47214,13.41641 -4.47214,13.41641c-2.07002,0.92117 -3.81366,2.51011 -5.40107,4.1268c-3.59304,3.6593 -7.05701,7.44233 -10.53886,11.20834c1.38362,0.09478 2.68813,0.36299 3.72511,1.21408c6.37391,5.23138 9.54516,15.44583 8.74269,23.50651c-0.25785,2.59011 0.06906,5.43672 -1.18325,7.71858c-1.10864,2.02006 -8.23255,7.0663 -10.55943,8.78793l-4.78518,2.43776c0,0 -8.94427,4.47214 -13.41641,-4.47214z" fill="#ffffff"/><path d="M402.85086,192.01721c-0.1011,1.6988 -1.05159,9.68468 -9.98797,9.68468c-10,0 -10,-10 -10,-10l0.51317,-4.16228c1.0252,-2.39598 0.48683,-5.25506 0.48683,-7.83772c0,-1.33333 -0.04706,-2.6675 0,-4c0.01502,-0.42521 0.44775,-1.59385 -0.03121,-2.04184c-4.43643,-4.14964 -9.35075,-5.23416 -15.20465,-3.34777c-3.26915,1.05347 -11.01724,4.34334 -13.73293,7.34777c-0.11192,0.12383 -0.16037,0.27949 -0.1823,0.44883l0.05059,0.00723l-0.0735,0.51452c-0.00496,0.16057 -0.01784,0.31777 -0.06549,0.45841l-0.84022,5.88153c-0.6234,4.92385 -4.8272,8.73133 -9.92029,8.73133c-5.52285,0 -10,-4.47715 -10,-10v-5.60598c-0.66671,-6.2896 -1.66443,-12.55336 -1.98625,-18.86987c-0.01442,-0.28294 -0.01375,-16.78757 -0.01375,-23.52414c0,-16 0,-32 0,-48c0,0 0,-10 10,-10c10,0 10,10 10,10c0,16 0,32 0,48c0,6.71545 -0.32137,13.4389 -0.10983,20.14884c3.99033,-2.10138 8.0843,-3.75936 11.34569,-4.75922c4.07666,-1.24981 15.3971,-2.15834 19.33082,-1.05461c3.66198,1.02749 6.89521,3.27669 10.05449,5.39442c2.69524,1.80667 5.50009,3.68936 7.41004,6.31242c4.37629,6.01026 3.96879,11.29734 3.96879,17.95816c0,4.41951 -0.02393,8.1868 -1.01203,12.31532z" fill="#ffffff"/><path d="M184.86289,231.70189c0,-5.52285 4.47715,-10 10,-10c5.52285,0 10,4.47715 10,10c0,5.52285 -4.47715,10 -10,10c-5.52285,0 -10,-4.47715 -10,-10z" fill="#ffffff"/><path d="M258.86289,226.70189c0,-5.52285 4.47715,-10 10,-10c5.52285,0 10,4.47715 10,10c0,5.52285 -4.47715,10 -10,10c-5.52285,0 -10,-4.47715 -10,-10z" fill="#ffffff"/><path d="M308.06345,273.76798c0.92945,1.01578 6.36511,7.51038 -0.12949,14.00498c-7.07107,7.07107 -14.14214,0 -14.14214,0l-2.8732,-3.59893c-4.3776,-8.79477 -9.26643,-16.12482 -19.83631,-17.63194c-4.48087,-0.63891 -9.02813,-0.70737 -13.5522,-0.84574c-6.35087,-0.19424 -12.82981,-0.58935 -19.04807,0.71626c-4.38019,0.91968 -25.89232,4.67043 -31.7199,8.00693c-4.19643,2.40261 -7.51273,6.11143 -10.96989,9.49235c-8.19445,8.01371 -14.83729,17.59994 -24.38236,24.11051c0,0 -8.3205,5.547 -13.8675,-2.7735c-5.547,-8.3205 2.7735,-13.8675 2.7735,-13.8675c3.96684,-2.53944 7.07702,-6.16983 10.32399,-9.59529c7.89166,-8.32545 16.16565,-19.00546 26.32376,-24.80186c5.29369,-3.02067 11.41145,-4.34204 17.29393,-5.93701c16.21218,-4.39575 27.36514,-5.86697 43.9381,-5.33981c10.45199,0.33246 19.50533,0.45084 29.06951,5.0156c9.94237,4.74527 15.9599,13.67037 20.79828,23.04495z" fill="#ffffff"/></g></g></svg>