<svg version="1.1" xmlns="http://www.w3.org/2000/svg" xmlns:xlink="http://www.w3.org/1999/xlink" width="149.5" height="86.91661" viewBox="0,0,149.5,86.91661"><defs><linearGradient x1="240" y1="124.66677" x2="240" y2="209.22999" gradientUnits="userSpaceOnUse" id="color-1"><stop offset="0" stop-color="#444459" stop-opacity="0"/><stop offset="1" stop-color="#444459"/></linearGradient></defs><g transform="translate(-165.25,-124.66677)"><g data-paper-data="{&quot;isPaintingLayer&quot;:true}" fill-rule="nonzero" stroke-linecap="butt" stroke-linejoin="miter" stroke-miterlimit="10" stroke-dasharray="" stroke-dashoffset="0" style="mix-blend-mode: normal"><path d="M171.5,209.22999v-84.56322h137v84.56323z" fill="url(#color-1)" stroke="none" stroke-width="0"/><path d="M171.5,205.33338v-41.00001h137v41.00001z" fill="#1ade00" stroke="#ffffff" stroke-width="12.5"/><path d="M171.5,205.33338v-60.66667h137v60.66667z" fill="#1ade00" stroke="none" stroke-width="0"/><path d="M171.5,195.33338v-60.66667h137v60.66667z" fill="#1dff00" stroke="none" stroke-width="0"/><text transform="translate(251.5024,171.19133) scale(0.78778,0.64989)" font-size="40" xml:space="preserve" fill="#000000" fill-rule="nonzero" stroke="none" stroke-width="1" stroke-linecap="butt" stroke-linejoin="miter" stroke-miterlimit="10" stroke-dasharray="" stroke-dashoffset="0" font-family="Serif" font-weight="normal" text-anchor="start" style="mix-blend-mode: normal"><tspan x="0" dy="0">📈</tspan></text><g fill="#231f20" stroke="none" stroke-width="0"><path d="M187.50384,176.29532v-25.80891h4.65918v25.80891zM190.7116,163.6072v-1.78096h6.93998v1.78096zM191.91908,162.36958v-1.93189h3.40291c1.09771,0 1.9149,-0.24148 2.47595,-0.73453c0.56105,-0.49303 0.84158,-1.21749 0.84158,-2.17338c0,-0.87539 -0.29272,-1.52941 -0.89037,-1.97214c-0.59764,-0.44273 -1.48801,-0.66409 -2.6711,-0.66409h-3.08579l-0.42689,-4.4172h3.68343c2.63451,0 4.67137,0.5534 6.11059,1.66022c1.43922,1.10682 2.15883,2.68654 2.15883,4.73918c0,1.76084 -0.56105,3.10914 -1.67096,4.06503c-1.12211,0.95589 -2.69549,1.42879 -4.74455,1.42879zM191.91908,176.29532v-4.4172h4.46403c1.26847,0 2.25641,-0.31192 2.96382,-0.9257c0.70741,-0.61378 1.06112,-1.48917 1.06112,-2.59598c0,-1.10682 -0.3659,-1.95202 -1.10991,-2.5658c-0.744,-0.60372 -1.79293,-0.90557 -3.15897,-0.90557h-4.14691l-0.42689,-1.93189h6.91558c2.17103,0 3.85419,0.54335 5.03728,1.6401c1.18309,1.09675 1.76854,2.62617 1.76854,4.61844c0,2.25388 -0.68302,3.9946 -2.04906,5.23221c-1.36604,1.23762 -3.30533,1.8514 -5.83007,1.8514h-5.47636z"/><path d="M215.0564,176.65756c-5.56174,0 -8.34261,-2.88778 -8.34261,-8.65328v-17.52793h4.65918v17.52793c0,1.3483 0.30492,2.3545 0.90256,3.03871c0.60984,0.67415 1.54899,1.01626 2.84185,1.01626c2.50034,0 3.75661,-1.3483 3.75661,-4.05497v-17.52793h4.65918v17.52793c0,2.88778 -0.71961,5.0511 -2.15883,6.48996c-1.43922,1.43886 -3.54927,2.16332 -6.31794,2.16332z"/><path d="M232.63198,168.58787l-8.3792,-18.10146h5.19583l5.07387,11.99385h0.31712l5.07387,-11.99385h5.19583l-8.3792,18.10146h-4.12252zM232.36365,176.29532v-12.72838h4.65918v12.72838z"/></g></g></g></svg>